<?xml version="1.0" standalone="no"?>
<!DOCTYPE svg PUBLIC "-//W3C//DTD SVG 1.1//EN" "http://www.w3.org/Graphics/SVG/1.1/DTD/svg11.dtd" >
<svg xmlns="http://www.w3.org/2000/svg" xmlns:xlink="http://www.w3.org/1999/xlink" version="1.1">
<metadata></metadata>
<defs>
<font id="hero_beamregular" horiz-adv-x="743" >
<font-face units-per-em="2048" ascent="1638" descent="-410" />
<missing-glyph horiz-adv-x="532" />
<glyph horiz-adv-x="0" />
<glyph horiz-adv-x="682" />
<glyph unicode=" "  horiz-adv-x="532" />
<glyph unicode="&#x09;" horiz-adv-x="532" />
<glyph unicode="&#xa0;" horiz-adv-x="532" />
<glyph unicode="!" horiz-adv-x="661" d="M61 1399v35q131 -16 283 -17q135 0 256 17v-35q-51 -14 -87 -44t-36 -73h-2l-39 -516q31 -37 72 -55q-20 -10 -44 -28.5t-36 -39.5l-25 -324h-147l-25 320q-23 41 -81 72q37 14 71 57l-39 535q-8 35 -43 59t-78 37zM231 92q0 41 28 67.5t69 26.5t67.5 -26.5t26.5 -67.5 t-26.5 -68.5t-67.5 -27.5t-69 27.5t-28 68.5z" />
<glyph unicode="&#x22;" horiz-adv-x="460" d="M61 1139v295h117v-295h-117zM283 1139v295h116v-295h-116z" />
<glyph unicode="#" horiz-adv-x="1402" d="M61 451l33 98l250 2l123 369l-268 -2l32 98l269 2l137 416h102l-137 -416l393 4l138 412h102l-137 -412l243 2l-30 -98l-244 -2l-123 -369l260 2l-30 -98l-263 -2l-151 -457h-103l152 457l-395 -4l-150 -453h-102l149 453zM446 551l396 4l121 369l-394 -4z" />
<glyph unicode="$" horiz-adv-x="1050" d="M61 287q0 111 70 190.5t182 79.5q100 0 158.5 -49t58.5 -119q0 -39 -19 -73.5t-58 -59.5q8 45 -28 89t-89 44q-57 0 -91 -45t-34 -108q0 -86 62.5 -152t185.5 -66q43 0 73 9v598q-51 -6 -98 -37q4 23 -2 52.5t-18 53.5q-109 63 -175.5 111.5t-112.5 114t-46 149.5 q0 168 123 263t327 108v28q-6 43 -37.5 68t-72.5 31v35q94 -14 160 -15q68 0 159 15v-35q-47 -8 -79.5 -37t-32.5 -82h-2v-6l120 -6q55 -6 97 -6q41 0 65 10l19 -19q-25 -113 -25 -247q0 -84 8 -152h-65q-20 158 -74.5 242t-144.5 106l2 -493q25 12 32 20q-4 -55 17 -96 q109 -66 181.5 -131.5t105.5 -147.5q26 -67 26 -139q0 -141 -99 -254t-261 -152v-61q6 -43 37.5 -67.5t72.5 -30.5v-35q-92 14 -159 14q-66 0 -160 -14v35q45 8 77.5 36.5t34.5 79.5v29h-69q-135 4 -226.5 51t-133.5 120t-42 153zM295 1161q0 -25 6 -53q12 -61 68.5 -111.5 t160.5 -113.5v493q-102 -8 -168.5 -65.5t-66.5 -149.5zM627 557l2 -491q59 39 92 102t33 135q0 92 -47 166q-29 47 -80 88z" />
<glyph unicode="%" horiz-adv-x="1765" d="M61 987q33 16 50 39q10 176 91 299t222 123q129 0 208 -122t91 -296v2q18 -29 53 -45q-33 -14 -53 -45q-8 -172 -87 -291t-216 -119t-218 121t-91 293q-12 23 -50 41zM258 942q6 -156 50 -262.5t118 -106.5q76 0 114 125t33 297v-55q-8 14 -23 27.5t-30 19.5q35 16 51 43 q-8 156 -50 267.5t-105 111.5q-68 0 -110 -109.5t-48 -269.5q18 -27 53 -43q-33 -14 -53 -45zM258 979v18v-18zM399 0l842 1434h102l-841 -1434h-103zM989 449q33 16 49 38q10 176 91 299t223 123q129 0 207.5 -121.5t91.5 -295.5v2q18 -29 53 -45q-33 -15 -53 -46 q-8 -172 -87 -290.5t-216 -118.5t-218 121t-92 293q-12 23 -49 41zM1186 403q6 -156 50 -263t118 -107q76 0 113.5 126t33.5 298v-56q-8 14 -23.5 27.5t-29.5 20.5q35 16 51 43q-8 156 -50 267t-106 111q-68 0 -109.5 -109.5t-47.5 -268.5q18 -27 53 -43q-33 -14 -53 -46z M1186 440v19v-19z" />
<glyph unicode="&#x26;" horiz-adv-x="1421" d="M61 373q0 143 68 280q-12 43 -39 82q51 -4 105 27q37 49 57 72q152 150 319 208q-127 49 -189.5 133.5t-62.5 182.5t59.5 188t169 145.5t249.5 55.5q117 0 197.5 -43t121.5 -110.5t41 -141.5q0 -96 -64.5 -163.5t-179.5 -67.5q-86 0 -135 45t-49 106t49 105 q14 -35 51 -49.5t74 -14.5q53 0 84 33t31 80q0 63 -54.5 111.5t-156.5 48.5q-88 0 -151.5 -45.5t-96.5 -118t-33 -154.5q0 -94 44 -174t128 -117q70 10 170 6q27 -2 43.5 -18t16.5 -37q0 -18 -16.5 -31.5t-51.5 -13.5q-31 0 -88 10l-47 8l-10 3q-154 -47 -271 -216l-45 -65 q10 -57 39 -92q-47 4 -94 -17q-49 -123 -49 -237q0 -129 53 -236.5t143.5 -174t196.5 -72.5q150 -10 262.5 52t173 169.5t60.5 228.5q0 84 -31 162t-90 137q-55 -80 -113.5 -124t-136.5 -44q-98 0 -219 78l35 31q51 -33 96 -33q63 0 115.5 49t130.5 152q86 111 147.5 166 t136.5 55q53 0 105 -29l-14 -33q-18 6 -37 7q-51 0 -90 -44.5t-73 -99.5t-44 -72q94 -66 141 -158.5t47 -197.5q0 -133 -70.5 -257t-200.5 -201.5t-296 -77.5q-205 0 -355.5 76.5t-228.5 204.5t-78 282zM866 1020h2h-2z" />
<glyph unicode="'" horiz-adv-x="239" d="M61 1139v295h117v-295h-117z" />
<glyph unicode="(" horiz-adv-x="845" d="M61 711q23 10 46.5 29.5t37.5 43.5q27 254 161 455t360 283h73q-135 -74 -235.5 -284t-122.5 -470q35 -41 74 -57q-51 -23 -78 -66q-2 -272 97 -505.5t310 -370.5h-84q-178 53 -304 187t-191.5 315.5t-67.5 377.5q-29 37 -76 62z" />
<glyph unicode=")" horiz-adv-x="845" d="M61 -231q211 137 310.5 370.5t97.5 505.5q-27 43 -78 66q39 16 74 57q-23 260 -123 470t-236 284h74q225 -82 359.5 -283t160.5 -455q14 -25 38 -44t46 -29q-46 -25 -75 -62q-2 -197 -68 -378t-191.5 -315t-304.5 -187h-84z" />
<glyph unicode="*" horiz-adv-x="493" d="M61 1167l119 72q-74 45 -112 66l45 71l100 -67q0 57 -6 118h90q-8 -74 -8 -112l86 67l49 -73q-92 -53 -107 -64q41 -25 115 -65l-45 -76l-98 67q0 -37 8 -110h-90q6 59 6 117l-115 -86z" />
<glyph unicode="+" horiz-adv-x="835" d="M61 698v123h289v279h123v-279h301v-123h-301v-311h-123v311h-289z" />
<glyph unicode="," horiz-adv-x="358" d="M61 -207l76 332h160l-158 -332h-78z" />
<glyph unicode="-" d="M61 471v129h621v-129h-621z" />
<glyph unicode="." horiz-adv-x="313" d="M61 92q0 41 28 67.5t69 26.5t67.5 -26.5t26.5 -67.5t-26.5 -68.5t-67.5 -27.5t-69 27.5t-28 68.5z" />
<glyph unicode="/" horiz-adv-x="790" d="M61 -139l566 1738h102l-565 -1738h-103z" />
<glyph unicode="0" horiz-adv-x="1263" d="M61 711q51 23 80 67q10 178 69.5 331t169 246t261.5 93q139 0 243.5 -92t164 -245t71.5 -329q31 -49 82 -71q-60 -33 -80 -68q-8 -178 -65.5 -327.5t-165 -240.5t-258.5 -91q-147 0 -255 91t-167 241.5t-70 326.5q-25 37 -80 68zM377 641q10 -252 78.5 -423t187.5 -171 q113 0 173.5 170t64.5 420q-12 20 -36 40.5t-48 33.5q20 10 42.5 28.5t37.5 40.5q-12 246 -78 423t-164 181q-113 6 -180.5 -171t-77.5 -433q14 -23 37.5 -41t44.5 -28q-57 -31 -82 -70z" />
<glyph unicode="1" horiz-adv-x="620" d="M61 1212v35q82 12 187.5 97.5t150.5 138.5h37v-703q33 -49 82 -69q-61 -33 -82 -70v-504q0 -43 36 -72.5t87 -44.5v-34q-74 10 -164 14h-125q-104 -4 -186 -14v34q51 14 87 44t36 73v504q-20 37 -82 70q49 20 82 69v324v108q-111 2 -146 0z" />
<glyph unicode="2" horiz-adv-x="1044" d="M61 145q0 113 71 241t230 241q16 47 9 98q20 -12 47.5 -21.5t54.5 -7.5q141 82 216 198t75 230q0 115 -74 191t-205 76q-74 0 -126 -31t-78.5 -78t-26.5 -96q0 -51 27.5 -85t76.5 -34q51 0 93.5 24.5t42.5 71.5q0 25 -13 51q57 -8 91 -51t34 -98q0 -76 -62.5 -133.5 t-181.5 -57.5q-121 0 -187 73t-66 177q0 82 43 158t129 124t206 48q147 0 260 -58.5t174.5 -156.5t61.5 -211q0 -125 -76 -243.5t-227 -206.5q-31 -18 -100 -52q-29 -53 -25 -98q-20 16 -47 29.5t-49 15.5q-154 -68 -237 -134.5t-89 -170.5q88 109 248 108q137 0 336 -79 q55 -23 98 -23q49 0 80 28.5t39 88.5q35 -41 35 -113q0 -86 -53.5 -149.5t-161.5 -63.5q-31 0 -86 10q-102 23 -240 82q-61 25 -90 35t-59 10q-39 0 -80 -23.5t-95 -78.5q-18 18 -30.5 56t-12.5 89z" />
<glyph unicode="3" horiz-adv-x="1046" d="M61 307q0 78 34 146.5t97.5 110.5t145.5 42q117 -2 177 -55t60 -125q0 -59 -39.5 -101t-107.5 -42q-10 0 -39 4q33 20 33 61q0 31 -22.5 54.5t-61.5 23.5q-55 0 -88 -44t-33 -110q0 -57 27.5 -111.5t84 -87t138.5 -30.5q86 2 149.5 54.5t97.5 134t34 171.5q0 92 -36 174 t-109 132.5t-179 50.5q-45 0 -113 -27q-8 -2 -22.5 -7t-22.5 -5q10 12 42 47t44 72q111 -6 190 38t118.5 116.5t39.5 154.5q0 102 -61 176t-170 74q-98 0 -153.5 -53.5t-55.5 -120.5q0 -49 31 -83t84 -34q47 0 72.5 21.5t25.5 60.5q0 31 -18 70q63 0 100 -43t37 -103 q0 -76 -57.5 -131t-163.5 -55q-119 0 -186.5 70.5t-67.5 170.5q0 74 40 141.5t118.5 109.5t191.5 42q135 0 235.5 -52t152.5 -134t52 -172q0 -113 -83 -198t-238 -103q139 -12 233 -80q39 0 80 16q-12 -43 -6 -82q92 -106 92 -249q0 -111 -59.5 -208.5t-176 -158.5 t-284.5 -61q-135 0 -226.5 47t-134.5 121.5t-43 158.5z" />
<glyph unicode="4" horiz-adv-x="1085" d="M61 547q123 150 190.5 302t67.5 265q0 80 -34.5 126t-102.5 46q-45 0 -88 -16q-8 18 -8 45q0 66 53.5 117t147.5 51q109 0 168 -63.5t59 -176.5q0 -131 -83 -311t-251 -389l451 2v559v108h-64l-2 37q113 57 258 234h37v-938h10q53 0 82 32.5t37 79.5h35q-14 -92 -14 -159 q0 -66 14 -160h-35q-6 43 -33.5 75.5t-74.5 37.5h-21v-314q0 -43 36 -72.5t87 -44.5v-34q-74 10 -164 14h-125q-104 -4 -186 -14v34q51 14 87 44t36 73v312l-568 -3z" />
<glyph unicode="5" horiz-adv-x="1118" d="M61 315q0 80 36 151t103.5 115t153.5 44q109 0 167.5 -55.5t58.5 -129.5q0 -59 -41 -99t-115 -36q18 23 18 57q0 33 -20.5 57.5t-56.5 24.5q-55 0 -89 -48t-34 -117q0 -94 66.5 -166t195.5 -72q96 0 165.5 55.5t105.5 145.5t36 192q0 63 -16 129q-45 33 -101 37 q35 35 51 80q-45 74 -118.5 116t-169.5 42q-76 0 -141.5 -25t-108.5 -59h-86l65 553q4 37 -5 66.5t-23 45.5v35q92 -18 214 -29.5t238 -11.5q223 0 305 41l19 -18q-16 -76 -16 -166q0 -106 20 -197h-66q-31 90 -72.5 129t-105 49.5t-205.5 12.5l-200 8l-41 -350 q47 18 119.5 30.5t158.5 12.5q147 0 256 -55.5t170 -153.5l-2 4q23 -16 52.5 -25.5t54.5 -7.5q-17 -20 -31 -48t-16 -52q20 -68 20 -146q0 -129 -60.5 -244.5t-181 -187.5t-292.5 -72q-145 0 -243.5 48.5t-145 125t-46.5 164.5z" />
<glyph unicode="6" horiz-adv-x="1163" d="M61 711q51 23 80 67q23 178 98.5 331t203.5 245t298 92q84 0 142.5 -34t89.5 -88t31 -114q0 -84 -59.5 -144t-166.5 -60q-84 0 -130 40.5t-46 96.5q0 43 28.5 75.5t76.5 36.5q-6 -14 -7 -28q0 -29 21.5 -47.5t60.5 -18.5q43 0 66.5 26.5t23.5 65.5q0 49 -36.5 86 t-98.5 37q-109 0 -185.5 -78.5t-116.5 -209t-44 -281.5q57 74 124 111.5t153 37.5q111 0 192.5 -46t134.5 -126q23 -16 52.5 -25t54.5 -7q-41 -50 -47 -99q23 -80 22 -157q0 -131 -53 -248t-156.5 -189.5t-249.5 -72.5q-158 0 -267 93t-164.5 245.5t-53.5 328.5 q-23 31 -72 58zM373 532q4 -215 69.5 -347t194.5 -134q94 -2 150.5 125t56.5 297q0 166 -56.5 285t-160.5 119t-175 -97.5t-79 -247.5z" />
<glyph unicode="7" horiz-adv-x="974" d="M61 1272q0 70 64.5 120t191.5 48l113 -2l211 -2l205 2q23 2 67 2v-197q-16 -98 -55 -191.5t-113 -246.5l-61 -129q4 -29 17.5 -55.5t29.5 -45.5q-27 -2 -55.5 -10t-46.5 -22q-47 -121 -66 -244q-4 -20 -4 -59q0 -68 27.5 -106t79.5 -38q-35 -51 -93.5 -80.5t-119.5 -29.5 q-78 0 -131.5 52t-53.5 155q0 115 50.5 225t140.5 229q4 49 -21 96q20 -6 49 -6q25 0 48 6l40 52q121 147 184.5 246.5t78.5 201.5h-418q-80 0 -138.5 -23.5t-58.5 -66.5q0 -14 10 -35q-76 0 -124 46t-48 108zM641 578l23 53q-8 -25 -23 -53z" />
<glyph unicode="8" horiz-adv-x="1038" d="M59 309q0 82 43 170t125 166q0 35 -16 76q25 -6 57 -6q27 0 56 6l22 16q-96 84 -156.5 157t-76.5 144q-8 31 -9 70q0 94 54.5 175t152 128t217.5 41q176 -8 273.5 -98t97.5 -219q0 -98 -60.5 -198.5t-174.5 -174.5q20 -16 30 -27q12 -2 37 -2q41 0 68 10q-8 -33 -8 -59 q0 -23 6 -45l92 -94q88 -90 88 -203q0 -96 -65.5 -181t-179.5 -134.5t-251 -44.5q-203 8 -312.5 100t-109.5 227zM262 358q0 -133 63.5 -223t186.5 -90q121 0 192.5 63.5t71.5 151.5q0 78 -55 141q-76 88 -246 228l-78 65q-63 -53 -99 -145t-36 -191zM289 1192 q0 -59 41 -115q41 -57 86 -100t116 -103q-10 8 76 -63q76 66 114 149.5t38 169.5q0 111 -63.5 187t-172.5 76q-57 0 -111.5 -27t-89 -73t-34.5 -101z" />
<glyph unicode="9" horiz-adv-x="1161" d="M61 684q16 20 30.5 48t17.5 50q-23 80 -23 160q0 129 52 246t154.5 189.5t246.5 72.5q152 0 260 -91t164.5 -242.5t60.5 -330.5q29 -37 76 -61q-49 -21 -82 -70q-16 -180 -87 -334.5t-194 -249t-288 -94.5q-139 0 -213 63.5t-74 154.5q0 84 62.5 145t162.5 61 q82 0 127 -41t45 -94q0 -43 -27.5 -70.5t-74.5 -25.5q6 12 6 29q0 25 -17.5 44t-46.5 19q-37 0 -59.5 -27.5t-22.5 -66.5q0 -47 35 -83t101 -36q98 0 168.5 81t108.5 213t42 286q-57 -74 -123.5 -112t-152.5 -38q-111 0 -193 46t-135 126q-23 16 -52.5 25.5t-54.5 7.5z M319 963q0 -166 56.5 -285t161.5 -119q104 0 174.5 97.5t79.5 246.5q-4 215 -70 347t-195 134q-94 2 -150.5 -124.5t-56.5 -296.5z" />
<glyph unicode=":" horiz-adv-x="313" d="M61 338q0 41 28 67.5t69 26.5t67.5 -26.5t26.5 -67.5t-26.5 -68.5t-67.5 -27.5t-69 27.5t-28 68.5zM61 1161q0 41 28 67.5t69 26.5t67.5 -26.5t26.5 -67.5t-26.5 -68.5t-67.5 -27.5t-69 27.5t-28 68.5z" />
<glyph unicode=";" horiz-adv-x="403" d="M61 -207l76 332h160l-158 -332h-78zM152 936q0 41 27.5 67.5t68.5 26.5t67.5 -26.5t26.5 -67.5t-26.5 -68.5t-67.5 -27.5t-68.5 27.5t-27.5 68.5z" />
<glyph unicode="&#x3c;" horiz-adv-x="811" d="M61 649v109l689 284v-151l-498 -189l498 -155v-144z" />
<glyph unicode="=" horiz-adv-x="835" d="M61 502v123h713v-123h-713zM61 821v123h713v-123h-713z" />
<glyph unicode="&#x3e;" horiz-adv-x="811" d="M61 403v144l498 155l-498 189v151l689 -284v-109z" />
<glyph unicode="?" horiz-adv-x="962" d="M59 1202q0 76 41 143.5t126 109.5t210 42q144 0 249.5 -56.5t161.5 -151.5t56 -210q0 -129 -72.5 -256t-218.5 -225q-33 -23 -98 -59q-16 -51 -10 -93q-45 29 -94 33q-51 -31 -78 -58.5t-27 -58.5q0 -10 8 -34q-92 31 -92 108q0 41 24.5 88t69.5 94l-16 -12q10 20 10 60 q0 31 -6 51q20 -10 49 -15.5t56 -3.5q154 113 231.5 239t77.5 239q0 115 -78 186.5t-213 71.5q-92 0 -142.5 -59.5t-50.5 -133.5q0 -53 27 -88t76 -35t76.5 25.5t27.5 66.5q0 31 -10 56q59 -8 93 -50t34 -98q0 -74 -58.5 -128t-166.5 -54q-82 0 -144.5 38t-95.5 98.5 t-33 129.5zM182 92q0 41 28 67.5t69 26.5q40 0 67 -26.5t27 -67.5t-27 -68.5t-67 -27.5q-41 0 -69 27.5t-28 68.5z" />
<glyph unicode="@" horiz-adv-x="1691" d="M61 610q0 199 100.5 378t293 290t456.5 111q234 0 395.5 -99.5t242.5 -256t81 -331.5q0 -145 -56 -269t-166 -199.5t-261 -75.5q-33 0 -49 2q-98 8 -146.5 75.5t-52.5 172.5q-37 -63 -104.5 -116.5t-163.5 -53.5q-135 0 -208 84t-73 210q0 63 19 127q-16 45 -52 80 q57 4 105 41v-2q61 98 165.5 156.5t239.5 50.5q68 -4 119 -35.5t80 -75.5q16 27 37 39q51 33 100 33q68 0 123 -55q-43 -18 -90 -110.5t-78 -211t-31 -211.5q0 -145 87 -145q90 0 160.5 70.5t110.5 188.5t40 249q0 156 -60.5 295t-190.5 226t-327 87q-217 0 -379.5 -104.5 t-250 -272.5t-87.5 -352q0 -178 83 -330.5t254 -246t421 -93.5q31 0 96 4l-28 -51q-70 -4 -101 -4q-279 0 -471 102.5t-287.5 269.5t-95.5 359zM543 506q0 -86 39 -139.5t114 -53.5q90 0 143.5 71t65.5 148q13 82 39.5 165t59.5 143q-12 41 -60.5 67.5t-107.5 26.5 q-80 0 -147.5 -66.5t-106.5 -168t-39 -193.5z" />
<glyph unicode="A" horiz-adv-x="1640" d="M0 -14q0 45 23 100q31 -86 145 -86q106 0 186 128t124 271.5t85 319.5q-27 0 -49 -6q-45 -12 -70.5 -48t-25.5 -79q0 -39 20 -72q-61 35 -91 79t-30 91q0 74 68 130t162 56q18 0 51 -4l180 727l-2 4q-47 27 -93 42.5t-103 15.5q-55 0 -87 -30t-32 -71q0 -33 23.5 -57 t66.5 -24q29 0 61 12v-6q0 -65 -39 -95q-41 -32 -98 -32q-90 0 -139 54t-49 132q0 59 29.5 113.5t88 88.5t138.5 34q84 0 153.5 -27t159.5 -78q12 -6 60.5 -31.5t91.5 -38.5q39 -12 79 -12q29 0 51.5 20.5t22.5 45.5q0 31 -39 49q12 4 37 4q43 0 66.5 -26.5t23.5 -63.5 q0 -49 -41 -88t-114 -39q-23 0 -60 4l180 -739q39 -33 91 -41q-18 -16 -36 -42t-24 -48l154 -627q23 -51 72 -95t104 -73l4 -35q-276 104 -469 105q-23 0 -68 -4l-4 34q55 14 89 39q28 20 28 46q0 6 -2 12h2l-57 233q-27 117 -98.5 210t-164 153.5t-182.5 85.5l-20 -89 q-51 -238 -100.5 -399.5t-135.5 -280t-213 -118.5q-84 0 -134 46t-50 120zM688 846q92 -31 179 -98.5t155 -167.5l-199 825z" />
<glyph unicode="B" horiz-adv-x="1548" d="M2 360q0 127 58 239q56 113 164 179q104 65 245 64h8h17v727q0 41 -36 71.5t-87 49.5v34q59 -12 205.5 -19t314.5 -7q145 0 251.5 -52.5t161 -137.5t54.5 -181q0 -119 -83 -217t-237 -137q140 -33 241 -115t154.5 -192.5t53.5 -231.5q0 -162 -95.5 -303t-291.5 -226 q-180 -78 -434 -78q-24 0 -48 1q-70 4 -104 8q-72 -59 -119 -104q-23 -18 -67 -60v35q61 78 98 146q-209 53 -316.5 194t-107.5 313zM170 365q0 -145 74.5 -268.5t214.5 -172.5q35 98 35 197v121q-106 8 -163 64t-57 126q0 66 46 111q40 40 103 40q8 0 17 -1 q-32 -28 -32 -75q0 -48 29.5 -82t82.5 -34q66 0 105 50.5t39 119.5q0 74 -46.5 128t-136.5 54q-98 0 -167.5 -52t-106.5 -139t-37 -187zM596 -100h4q13 0 27 -1q185 1 319 79q144 84 217.5 221t73.5 286q0 168 -92 298t-262 167h-37h-123v-178q59 -39 89 -99.5t30 -125.5 q0 -72 -31 -136.5t-88 -109.5v-164q0 -43 36 -72.5t87 -44.5v-34q-10 2 -31 2q-94 0 -219 -88zM723 1012h117q141 0 215.5 89t74.5 214q0 78 -29.5 149.5t-84.5 117.5t-129 48q-20 1 -37 1q-52 0 -84 -9q-43 -12 -43 -53v-557z" />
<glyph unicode="C" horiz-adv-x="1345" d="M0 711q45 18 78 65q8 242 95 456t252 346t388 132q96 0 154.5 -17.5t128.5 -50.5q37 -18 60.5 -27t51.5 -9q35 0 72 14q4 -9 4 -25q0 -37 -31.5 -67.5t-81.5 -30.5q-10 0 -30 4q16 -23 26.5 -60.5t10.5 -80.5q0 -119 -73 -209t-226 -90q-117 0 -178.5 62.5t-61.5 148.5 q0 59 28.5 107t80.5 69q-12 -25 -13 -55q0 -57 38 -101.5t108 -44.5q80 0 125 53.5t45 129.5q0 88 -60.5 152.5t-167.5 64.5q-158 0 -269.5 -136.5t-165.5 -353.5q-49 -195 -49 -408q0 -24 1 -47v82q14 -25 37.5 -44t46.5 -29q-57 -31 -82 -70q12 -197 65.5 -359.5 t148.5 -260t224 -97.5q100 0 163 71t63 167q0 90 -54 164q47 18 86 18q66 0 106 -42t40 -112q0 -63 -31 -127q-47 -100 -166 -149t-244 -49q-201 0 -346 106.5t-224 283.5t-93 388q-12 20 -36 38.5t-44 29.5z" />
<glyph unicode="D" horiz-adv-x="1695" d="M0 348q0 129 60 244q60 116 176 184q112 67 261 66h9h16v727q0 41 -35.5 71.5t-87.5 49.5v34q53 -12 174 -19t258 -7h95q197 0 343 -121t224 -319.5t78 -426.5q0 -47 -2 -71q33 -37 65 -49q-47 -25 -78 -64q-33 -223 -145.5 -408.5t-311 -298t-472.5 -112.5q-35 0 -92 4 q-37 -31 -115 -100q-23 -18 -68 -60v35q59 76 94 137q-147 31 -247.5 107t-149.5 180.5t-49 216.5zM186 371q0 -152 78 -282t215 -175q39 94 39 207v123q-94 12 -142 63t-48 113q0 51 32.5 90t88.5 47q-10 -31 -11 -61q0 -49 29 -80q24 -26 74 -26q10 0 20 1q61 4 98 56.5 t37 119.5q0 74 -45 125t-133 51q-160 0 -246 -108.5t-86 -263.5zM612 -106q205 0 352.5 105t232.5 277.5t112 380.5q-29 35 -70 54q20 10 43 28.5t37 40.5q2 27 2 80q0 201 -50 377t-142.5 283.5t-213.5 109.5h-24q-65 0 -99 -9q-40 -11 -40 -52v-793q72 -45 108.5 -111.5 t36.5 -140.5q0 -76 -39 -142.5t-110 -102.5v-142q0 -43 35.5 -72.5t86.5 -44.5v-34q-10 2 -30 2q-96 0 -228 -94z" />
<glyph unicode="E" horiz-adv-x="1323" d="M0 733q25 -2 53.5 6.5t52.5 22.5l-8 -19q131 215 391 310q-127 49 -189 131t-62 176q0 98 65.5 190t184 150.5t268.5 58.5q88 0 152.5 -20.5t146.5 -57.5q37 -20 62.5 -29.5t47.5 -9.5q27 0 52 19q14 -14 14 -45q0 -45 -36 -81q-34 -34 -94 -34h-7q26 -36 26 -81 q0 -54 -27.5 -105t-82 -84t-127.5 -33q-96 0 -151.5 46t-55.5 110q0 37 20.5 70.5t61.5 58.5q-1 -8 -1 -16q-1 -41 27 -64q32 -27 84 -27q53 0 84 37t31 88q0 76 -61.5 135.5t-173.5 59.5q-94 0 -164 -46t-106 -121t-36 -157q0 -92 45 -170t129 -115q55 8 99 9q33 0 51 -2 q31 -2 48 -17.5t17 -36.5q0 -18 -19 -32.5t-54 -14.5q-23 0 -59.5 7.5t-55.5 11.5l-10 2q-100 -33 -179 -106.5t-130 -176.5q14 -43 51 -80q-25 -4 -53.5 -15t-47.5 -26q-34 -108 -34 -228v-7q0 -133 44 -245t134 -178.5t221 -66.5q139 0 237.5 65.5t148.5 169t50 214.5 q0 135 -72.5 232.5t-203.5 105.5q-16 1 -31 1q-74 0 -129 -25q-66 -30 -97.5 -82t-31.5 -111q0 -84 57.5 -147.5t151.5 -63.5q53 0 93 27.5t58 82.5q49 -49 50 -112q0 -74 -62.5 -127.5t-165.5 -53.5q-102 0 -176 44.5t-111.5 116t-37.5 153.5q0 92 48 177t143 137t230 52 q150 0 256.5 -60t162 -160.5t55.5 -215.5q0 -129 -67 -243.5t-200 -187.5t-321 -73q-213 0 -364.5 84t-229.5 222.5t-78 298.5q0 113 41 223q-2 47 -43 104z" />
<glyph unicode="F" horiz-adv-x="1439" d="M0 1438q0 106 54.5 201.5t162 154.5t258.5 59q66 0 140.5 -11t185.5 -32q137 -27 226 -39t179 -12q141 0 221 50.5t80 123.5q0 49 -41 101q100 0 160 -57.5t60 -139.5q0 -66 -42 -125t-130.5 -97t-217.5 -38q-124 0 -276 47v-727q49 33 108.5 54.5t108.5 21.5q18 0 27 -2 q68 -14 105.5 -57.5t37.5 -100.5q0 -61 -36 -99t-87 -38q-49 0 -92 37q61 29 61 84q0 33 -18 55q-27 33 -72 33q-61 0 -143 -56v-710q6 -37 41 -61.5t80 -37.5v-34q-10 2 -31 2q-90 0 -182 -62.5t-250 -204.5l-55 -49v35q86 111 127 205q38 88 38 207v18h3v506 q-12 20 -36 38.5t-44 29.5q51 23 80 67v932q-102 40 -176 60q-61 16 -115 17q-11 0 -21 -1q-106 -8 -183 -61.5t-116 -133.5t-39 -166q0 -119 72 -203.5t199 -84.5q100 0 152 58t52 138q0 49 -21.5 89t-57.5 59q-47 20 -86 20q-45 0 -76 -24.5t-45 -69.5q-39 39 -39 92 q0 43 26.5 84t75.5 63q38 17 86 16q13 0 27 -1q123 -12 192.5 -92t69.5 -187q0 -82 -43 -153.5t-129 -115.5q-82 -42 -198 -42h-11q-123 0 -210 52.5t-132 135t-45 179.5z" />
<glyph unicode="G" horiz-adv-x="1329" d="M0 711q43 18 76 63q2 256 93 481.5t275 360.5q170 126 411 126q18 0 36 -1q113 -4 194.5 -57.5t123.5 -135.5t42 -172q0 -86 -37.5 -160.5t-114.5 -119.5t-188 -45q-127 0 -195.5 65.5t-68.5 155.5q0 82 58.5 145.5t158.5 71.5q-59 -53 -59 -127q0 -51 29.5 -88t76.5 -39 q9 -1 18 -1q93 0 147 56q59 62 59 150q0 96 -68 166.5t-188 70.5q-172 0 -295 -129t-185.5 -336.5t-66.5 -443.5q31 -41 71 -57q-47 -25 -71 -56q10 -197 60 -360.5t139.5 -262t211.5 -98.5q94 0 151.5 34t57.5 98v442q0 27 -75.5 51.5t-116.5 24.5q-45 -2 -66.5 -20.5 t-21.5 -43.5t18.5 -44t46.5 -19q31 0 64 26q14 -20 14 -55q0 -43 -30.5 -76t-102.5 -33q-55 0 -90 43.5t-35 100.5q0 70 51 120t152 50q61 0 119.5 -18.5t138.5 -53.5q72 -29 115 -43t84 -14q31 0 51 10v-22q-8 -25 -35 -38.5t-55 -13.5v-399q0 -106 20.5 -176t52.5 -88 q-12 -4 -26 -4q-39 0 -85 18.5t-83 59t-43 106.5q-47 -39 -120 -65.5t-157 -26.5q-186 0 -327.5 105.5t-223.5 281.5t-102 387q-12 20 -35.5 39.5t-48.5 32.5z" />
<glyph unicode="H" horiz-adv-x="1642" d="M-20 516q0 131 63 249t192.5 197.5t317.5 92.5v614h4q-51 31 -98 46.5t-107 15.5q-55 0 -87 -30t-32 -71q0 -33 24 -57.5t67 -24.5q29 0 61 13v-6q0 -65 -39 -96q-41 -32 -98 -32q-90 0 -139.5 54.5t-49.5 132.5q0 59 30 113.5t88.5 88t137.5 33.5q84 0 153 -25.5 t161 -76.5q78 -43 127 -63.5t104 -20.5q29 0 51.5 20.5t22.5 45.5q0 31 -39 49q12 4 37 4q43 0 66.5 -26.5t23.5 -63.5q0 -49 -41 -88t-115 -39q-35 0 -84 8v-533q127 -25 246 -77t203 -134v676h-2q0 43 -36 73t-87 44v35q131 -16 250 -17q104 0 225 17v-35 q-45 -12 -79 -36.5t-42 -61.5v-740q14 -25 38 -44t46 -29q-25 -12 -48 -33t-36 -41v-520q8 -37 42 -61.5t79 -37.5v-34q-121 16 -225 16q-119 0 -250 -16v34q51 14 87 44t36 73h2v553q-190 203 -449 256v-420q59 -82 60 -182q0 -100 -60 -174v-96q0 -43 36 -73t87 -44v-35 q-10 2 -31 2q-90 0 -182 -62.5t-250 -203.5l-55 -49v35q82 106 123 196t43 211q-14 0 -44 -3t-54 -3q-147 0 -255 66.5t-164 175t-56 231.5zM160 545q0 -96 38 -180t109.5 -136.5t169.5 -52.5h5q72 0 116 56q45 58 45 128q0 55 -31.5 94.5t-91.5 39.5q-53 0 -82.5 -34 t-29.5 -79q0 -49 32 -78q-11 -1 -22 -1q-61 0 -99 38q-45 45 -45 111q0 51 31 97t93 74q55 24 132 24q11 0 23 -1v316q-129 -10 -218 -72t-132 -153t-43 -191z" />
<glyph unicode="I" horiz-adv-x="1003" d="M0 1614q0 59 29.5 113.5t88 88t138.5 33.5q84 0 152.5 -25.5t160.5 -76.5q78 -43 127 -63.5t105 -20.5q29 0 51 20.5t22 45.5q0 31 -38 49q12 4 36 4q43 0 67 -26.5t24 -63.5q0 -49 -41 -88t-115 -39q-25 0 -62 4v-785q33 -49 82 -69q-61 -33 -82 -70v-514 q0 -43 36 -72.5t87 -44.5v-34q-10 2 -30 2q-90 0 -182.5 -62.5t-249.5 -204.5l-56 -49v35q82 106 123 197.5t43 216.5v526q-20 37 -82 70q49 20 82 69v879q-66 37 -112 54.5t-111 17.5q-55 0 -87 -30t-32 -71q0 -33 23.5 -57.5t66.5 -24.5q29 0 62 13v-6q0 -65 -39 -96 q-41 -32 -99 -32q-90 0 -139 54.5t-49 132.5z" />
<glyph unicode="J" horiz-adv-x="1460" d="M0 193q0 125 59.5 234.5t172 177t268.5 67.5q121 0 209 -48.5t132 -124t44 -157.5q0 -100 -64.5 -174t-181.5 -86l-27 -2q-82 0 -135 49t-53 115q0 53 39 92q12 -41 38.5 -62.5t61.5 -21.5q39 0 82 24q33 18 51.5 56.5t18.5 81.5q0 82 -57 140q-56 56 -162 56h-7 q-84 -2 -145 -59t-94 -150.5t-33 -199.5q0 -119 42 -225.5t128 -172t211 -65.5q168 0 255 93t119 274.5t32 490.5v45q-20 37 -82 70q49 20 82 69v860q-84 49 -132.5 70t-121.5 21q-55 0 -87 -30t-32 -71q0 -33 23.5 -57.5t66.5 -24.5q27 0 61 13v-6q0 -65 -39 -96 q-41 -32 -98 -32q-90 0 -139 54.5t-49 132.5q0 59 29.5 113.5t88 88t138.5 33.5q84 0 155.5 -26.5t159.5 -77.5q70 -37 111 -55.5t86 -24.5h8q8 -2 24 -2q29 0 51.5 20.5t22.5 45.5q0 31 -39 49q12 4 37 4q43 0 66.5 -26.5t23.5 -63.5q0 -51 -45 -91q-41 -36 -111 -36h-14 q-10 0 -16 2v-787q33 -49 82 -69q-61 -33 -82 -70v-45v-40q0 -265 -49 -452q-54 -200 -197 -313q-139 -110 -388 -110h-13q-190 2 -322.5 74.5t-198 189t-65.5 248.5z" />
<glyph unicode="K" horiz-adv-x="1570" d="M0 1614q0 59 29.5 113.5t88 88t138.5 33.5q84 0 152.5 -25.5t160.5 -76.5q78 -43 127 -63.5t105 -20.5q29 0 51 20.5t22 45.5q0 31 -38 49q12 4 36 4q43 0 67 -26.5t24 -63.5q0 -49 -41 -88t-115 -39q-23 0 -64 4v-744l287 426q119 176 208 288t182 179.5t190 67.5 q82 0 126 -39t44 -92q0 -33 -17.5 -60.5t-48.5 -42.5q-37 90 -121 90t-202.5 -99t-272.5 -324l-223 -330q27 6 55 6q86 0 153.5 -69.5t115 -172t110.5 -272.5q80 -217 142.5 -337t152.5 -171q51 -29 96 -29q39 0 67 18.5t38 45.5q26 -33 26 -72q0 -45 -29 -88 q-30 -42 -88 -68q-50 -22 -114 -23q-10 0 -21 1q-123 6 -211 110.5t-143 246t-119 360.5q-45 154 -75.5 240.5t-69.5 143t-88 56.5q-29 0 -66 -24l-84 -123v-537q0 -43 36 -72.5t87 -44.5v-34q-10 2 -30 2q-90 0 -182.5 -62.5t-250.5 -204.5l-55 -49v35q82 106 123 197.5 t43 216.5v526q-20 37 -82 70q49 20 82 69v879q-61 37 -109.5 54.5t-111.5 17.5q-55 0 -87 -30t-32 -71q0 -33 23.5 -57.5t66.5 -24.5q29 0 62 13v-6q0 -65 -39 -96q-41 -32 -99 -32q-90 0 -139 54.5t-49 132.5z" />
<glyph unicode="L" horiz-adv-x="925" d="M0 1614q0 59 29.5 113.5t88 88t138.5 33.5q84 0 152.5 -25.5t160.5 -76.5q78 -43 127 -63.5t105 -20.5q29 0 51 20.5t22 45.5q0 31 -38 49q12 4 36 4q43 0 67 -26.5t24 -63.5q0 -49 -41 -88t-115 -39q-23 0 -64 4v-791q29 -45 80 -67q-20 -10 -43.5 -28.5t-36.5 -39.5 v-618q0 -66 29 -76q76 -27 132.5 -53.5t131.5 -65.5q96 -51 161 -74.5t155 -23.5q197 0 196 168q43 -15 68.5 -56t25.5 -92q0 -86 -66.5 -149.5t-191.5 -63.5q-96 0 -184 49.5t-215 147.5q-92 72 -153.5 110.5t-120.5 53.5q-66 16 -133 16q-63 0 -116.5 -12.5t-70.5 -16.5 v35q51 14 87 45t36 78v592q-12 20 -35.5 40.5t-48.5 33.5q23 10 46.5 29.5t37.5 43.5v875q-61 37 -109.5 54.5t-111.5 17.5q-55 0 -87 -30t-32 -71q0 -33 23.5 -57.5t66.5 -24.5q29 0 62 13v-6q0 -65 -39 -96q-41 -32 -99 -32q-90 0 -139 54.5t-49 132.5z" />
<glyph unicode="M" horiz-adv-x="2015" d="M0 1589q0 59 29.5 113.5t88 88.5t138.5 34q84 0 152.5 -25.5t160.5 -77.5q78 -43 127 -63.5t105 -20.5q29 0 51 20.5t22 45.5q0 31 -38 49q12 4 36 4q43 0 67 -26.5t24 -63.5q0 -45 -35 -83t-101 -44l381 -1169l389 1167q-10 33 -43.5 55.5t-74.5 32.5v35 q131 -16 250 -16q104 0 225 16v-35q-51 -14 -87 -44t-36 -73v-737q35 -43 76 -61q-51 -25 -76 -62v-512q0 -43 36 -72.5t87 -44.5v-34q-121 16 -225 16q-119 0 -250 -16v34q51 14 87 44t36 73v1141l-424 -1278h-95l-442 1341l4 -1204q0 -68 36 -106.5t87 -50.5v-35 q-14 2 -37 2q-55 0 -93 -26.5t-106 -98.5q-80 -88 -149 -150v35q82 106 123 197.5t43 216.5v530q-31 37 -76 60q41 16 76 61l-2 844q-84 49 -132 69.5t-122 20.5q-55 0 -87 -29.5t-32 -70.5q0 -33 23.5 -57.5t66.5 -24.5q29 0 62 12v-6q0 -66 -39 -96q-41 -32 -99 -31 q-90 0 -139 54t-49 132z" />
<glyph unicode="N" horiz-adv-x="1677" d="M0 1612q0 59 29.5 113.5t88 88t138.5 33.5q84 0 152.5 -25.5t160.5 -76.5q78 -43 127 -63.5t105 -20.5q29 0 51 20.5t22 44.5q0 31 -38 50q14 4 36 4q43 0 67 -27t24 -63q0 -39 -28 -74t-79 -47l555 -1090l-2 1030q0 53 -33 82t-80 37v35q92 -14 160 -14q66 0 160 14v-35 q-45 -8 -78 -35.5t-35 -76.5l2 -738q29 -45 80 -67q-20 -10 -43.5 -28.5t-36.5 -37.5l2 -725h-94v-2l-2 2v2l-764 1520l4 -1305q0 -68 36 -106.5t87 -50.5v-35q-14 2 -37 2q-55 0 -93 -26.5t-105 -98.5q-80 -88 -150 -150v35q82 106 123 197.5t43 216.5v530q-31 37 -76 60 q41 16 76 61l-2 858l-4 6q-14 8 -61.5 36t-94.5 42.5t-100 14.5q-55 0 -87 -30t-32 -71q0 -33 23.5 -57.5t66.5 -24.5q29 0 62 13v-6q0 -65 -39 -96q-41 -32 -99 -32q-90 0 -139 54.5t-49 132.5z" />
<glyph unicode="O" horiz-adv-x="1388" d="M0 702q43 18 76 64v27q0 231 64 437q68 218 204.5 354t329.5 136q184 0 315 -134t197 -350q64 -210 63 -447v-15q33 -47 78 -63q-24 -13 -48 -33.5t-36 -40.5q-18 -213 -89 -389t-190.5 -282.5t-283.5 -106.5q-172 0 -299 105.5t-202 280.5t-95 388v-4q-12 20 -35.5 40.5 t-48.5 32.5zM317 772q14 -23 38 -41t44 -29q-51 -25 -75 -61q23 -305 117 -509t251 -204q137 0 218 206t94 509q-25 37 -80 68q20 10 43.5 28.5t38.5 40.5q-4 223 -45 422t-117 324t-178 129q-68 0 -105 -42t-37 -100q0 -59 37 -103t101 -44q66 0 93 34q22 28 22 71 q0 10 -1 20q39 -16 59.5 -50t20.5 -75q0 -66 -49 -115t-139 -49q-113 0 -178.5 65.5t-69.5 159.5q-51 -125 -78 -298q-25 -161 -25 -332v-25z" />
<glyph unicode="P" horiz-adv-x="1486" d="M0 1346q0 125 78 244.5t236.5 197.5t385.5 78t391 -89t248 -231.5t84 -298.5q0 -141 -70.5 -264t-211 -197.5t-340.5 -74.5h-78v-574q0 -43 36 -72.5t87 -44.5v-34q-10 2 -31 2q-90 0 -182 -62.5t-250 -204.5l-55 -49v35q82 106 123 197.5t43 216.5v522q-12 20 -36 38.5 t-44 29.5q51 23 80 67v649q0 43 -36 73t-87 44v35q14 -2 41 -2q55 0 108 17.5t131 50.5q10 4 68.5 28.5t114.5 34.5v-35q-45 -16 -68 -36.5t-33 -66.5t-10 -136v-662h72q123 0 211 68.5t133 180.5t45 239q0 141 -54 266q-56 124 -164 200q-103 72 -246 72h-15 q-162 -6 -268.5 -65.5t-155 -145.5t-48.5 -178q0 -86 39 -144.5t101 -58.5q25 0 55 13q0 -72 -50 -116t-124 -44q-51 0 -104 24q-72 35 -111 106t-39 157z" />
<glyph unicode="Q" horiz-adv-x="1415" d="M0 711q45 31 72 77q-8 68 -9 154q0 231 70 430t211 323t344 124q190 0 325.5 -131.5t204 -345.5t68.5 -455q0 -39 -4 -117q27 -43 70 -65q-57 -27 -86 -64q-33 -209 -122 -372t-224 -240h7q50 0 105 -27q60 -29 148 -84q80 -49 127 -71.5t86 -22.5q66 0 96 74 q29 -35 29 -82q0 -63 -49.5 -112.5t-137.5 -49.5q-47 0 -108 18q-49 14 -93.5 49t-123.5 109q-74 72 -124.5 108.5t-95.5 36.5q-41 0 -59 -24.5t-18 -61.5q0 -20 8 -53q-37 12 -55.5 37t-18.5 51q0 39 31 71t80 40q109 41 180.5 211t97.5 409q-25 29 -71 56q20 10 43.5 28.5 t37.5 40.5q2 37 2 111q0 223 -41.5 419.5t-125.5 318.5t-203 124q-68 -2 -103.5 -43t-35.5 -100q0 -57 35.5 -101.5t97.5 -44.5q68 0 98 34q22 26 22 67q0 12 -2 26q39 -16 60.5 -50t21.5 -75q0 -68 -51 -117t-143 -49q-115 0 -180.5 71t-65.5 169q0 27 6 53 q-63 -109 -96 -273.5t-33 -352.5q0 -86 6 -172q29 -45 80 -68q-43 -23 -67 -51q33 -231 110.5 -394t190.5 -202l-9 -70q-201 27 -337 205t-187 438v-6q-14 20 -40.5 37.5t-51.5 26.5z" />
<glyph unicode="R" horiz-adv-x="1562" d="M0 1346q0 125 78 244.5t235.5 197.5t384.5 78q229 0 394 -89t249 -232.5t84 -301.5q0 -172 -99 -311t-286 -197q100 -49 169 -135t111 -180t89 -232q47 -139 83 -211.5t89 -103.5q51 -31 96 -31q39 0 67 19.5t38 46.5q26 -33 26 -72q0 -43 -27.5 -84t-79.5 -67.5 t-126 -26.5q-131 0 -212 76t-123 187.5t-85 289.5q-41 164 -74.5 260t-97 162.5t-164.5 68.5h-18h-78v-565q0 -43 36 -72.5t87 -44.5v-34q-10 2 -31 2q-90 0 -182 -62.5t-250 -204.5l-55 -49v35q82 106 123 197.5t43 216.5v522q-12 20 -36 38.5t-44 29.5q51 23 80 67v649 q0 43 -36 73t-87 44v35q14 -2 41 -2q55 0 108 17.5t131 50.5q10 4 68.5 28.5t114.5 34.5v-35q-41 -14 -63.5 -33.5t-35 -61.5t-12.5 -120v-665h72q123 0 211 66.5t133 176t45 234.5q0 139 -54 262q-56 122 -164 196q-103 70 -245 70h-16q-162 -6 -268.5 -65.5t-155 -145.5 t-48.5 -178q0 -86 39 -144.5t101 -58.5q25 0 55 13q0 -72 -50 -116t-124 -44q-51 0 -104 24q-72 35 -111 106t-39 157z" />
<glyph unicode="S" horiz-adv-x="1486" d="M0 176q0 131 66.5 250t191.5 191.5t291 72.5q160 0 272 -63l68 96q-59 47 -199 133q-139 88 -220 151.5t-135 151.5t-54 205q0 35 2 53q10 92 71.5 192.5t186.5 171t311 70.5q225 0 338 -122q100 -94 100 -246q0 -223 -229 -594l49 -37q29 10 47 25v-17q0 -27 6 -55 q152 -137 226 -313q36 -88 36 -199q0 -158 -80.5 -305.5t-247.5 -242.5t-411 -95q-209 0 -358 63q-13 -46 -13 -88v-16h6q37 -1 57 -25q22 -26 21 -65q0 -37 -26.5 -63.5t-63.5 -26.5q-45 0 -90 28.5t-45 104.5q0 82 59 200q-117 74 -175 183.5t-58 230.5zM203 207 q0 -84 26.5 -163t77.5 -142q41 70 107 164q-31 49 -31 104q0 78 55.5 133t149.5 55q25 0 37 -2l137 189q-73 69 -190 69h-3q-114 0 -197 -56t-126 -149.5t-43 -201.5zM373 -164q121 -94 307 -94q156 0 270.5 70.5t175 183.5t60.5 240q0 150 -84 274q-43 59 -86 102 q-37 -8 -70 -30q1 10 1 20q0 40 -19 80l-60 -88q70 -53 105 -129t35 -158q0 -90 -42 -170t-124 -129t-195 -49q-109 0 -180 51q-53 -88 -94 -174zM500 1425q10 -90 60 -159.5t120 -121.5t188 -126q61 -39 150 -98q150 248 190 426q-45 -45 -121 -46q-82 0 -137 45.5 t-55 116.5q0 43 20 86q41 -63 103 -63q41 0 70.5 30.5t29.5 73.5q0 84 -75.5 134.5t-190.5 50.5q-113 0 -197 -50q-84 -48 -125 -128q-32 -63 -32 -133q0 -19 2 -38zM563 158q20 -27 72 -27q102 0 159.5 62.5t57.5 152.5q0 86 -49 156l-60 -84q-102 -143 -180 -260zM932 688 l6 -4q-4 4 -6 4z" />
<glyph unicode="T" horiz-adv-x="1214" d="M0 1499q0 106 54.5 201.5t162 155t258.5 59.5q66 0 140.5 -11.5t185.5 -31.5q137 -27 226 -39t179 -12q141 0 221 50t80 124q0 49 -41 100q101 0 160.5 -60.5t59.5 -144.5q0 -66 -39 -124t-121 -95t-201 -37q-20 0 -70 4q-115 10 -256 60v-914q14 -25 38 -44t46 -29 q-25 -12 -48 -33t-36 -41v-500q0 -43 36 -72.5t87 -44.5v-34q-10 2 -30 2q-90 0 -182.5 -62.5t-250.5 -204.5l-55 -49v35q82 106 123 197.5t43 216.5v522q-12 20 -35.5 38.5t-44.5 29.5q51 23 80 67v1006q-94 35 -162 51q-55 13 -105 13q-12 0 -24 -1q-106 -8 -183 -62 t-116 -135t-39 -169q0 -117 67.5 -200t188.5 -83q106 0 162.5 60.5t56.5 140.5q0 47 -21.5 86t-57.5 57q-47 20 -86 21q-45 0 -76 -25t-45 -70q-39 39 -39 93q0 43 26.5 84t75.5 63q37 16 82 16q15 0 31 -2q123 -12 192.5 -92t69.5 -186q0 -82 -43 -154t-129 -116 q-81 -42 -194 -41h-15q-123 0 -210 52t-132 135t-45 179z" />
<glyph unicode="U" horiz-adv-x="1640" d="M0 1624q0 92 67.5 159.5t186.5 67.5q41 0 63 -4q80 -12 142.5 -48t142.5 -99q86 -70 151.5 -104.5t153.5 -34.5q51 0 78 25.5t27 58.5q0 14 -8 30q59 -29 59 -84q0 -43 -40 -76.5t-101 -35.5q-88 0 -156 24v-727q33 -47 78 -65q-51 -27 -78 -64v-194q0 -248 21.5 -371 t80 -172t176.5 -49q131 0 203 47t98.5 131t28.5 211v397q-27 37 -78 64q41 16 78 63l-2 723q0 53 -32.5 82t-79.5 37v35q94 -14 159 -15q68 0 160 15v-35q-45 -8 -78 -36t-35 -79l2 -723q29 -45 80 -67q-20 -10 -43.5 -28.5t-36.5 -37.5l2 -387v-12v-10q-6 -436 -421 -437 q-221 0 -335 80t-146.5 194.5t-32.5 262.5l2 117v184q-12 20 -36 40.5t-48 33.5q23 10 46 29.5t38 43.5v858q-59 43 -107.5 66t-101.5 23q-61 0 -95 -29t-34 -68q0 -33 25.5 -57.5t72.5 -24.5q27 0 53 9v-6q0 -65 -39 -95q-41 -30 -100 -30q-18 0 -47 4q-80 14 -122 67 t-42 123z" />
<glyph unicode="V" horiz-adv-x="1855" d="M0 1614q0 59 29.5 113.5t88 88t138.5 33.5q84 0 152.5 -25.5t160.5 -76.5q78 -43 127 -63.5t105 -20.5q29 0 51 20.5t22 45.5q0 31 -38 49q12 4 36 4q43 0 67 -25.5t24 -62.5q0 -49 -39 -88t-109 -41l359 -1250l337 1233q2 9 2 16q-1 32 -33 52q-40 24 -83 24l4 35 q16 -2 45 -2q55 0 101 14.5t110 41.5q12 4 53 20t84 27l-4 -35q-51 -18 -100.5 -59.5t-77.5 -100.5l-223 -825q12 -47 57 -92q-47 -4 -90 -33l-199 -737h-100l-213 741q-41 25 -84 29q35 35 53 77l-258 895q-18 10 -65.5 38t-95.5 42.5t-101 14.5q-55 0 -87 -30t-32 -71 q0 -33 23.5 -57.5t66.5 -24.5q29 0 62 13v-6q0 -65 -39 -96q-41 -32 -99 -32q-90 0 -139 54.5t-49 132.5z" />
<glyph unicode="W" horiz-adv-x="2727" d="M0 1610q0 59 29.5 113.5t88 88t138.5 33.5q84 0 152.5 -25.5t160.5 -76.5q78 -43 127 -63.5t105 -20.5q29 0 51 20.5t22 44.5q0 31 -38 50q12 4 36 4q43 0 67 -27t24 -63q0 -43 -32 -80t-93 -45l358 -1248l299 1088l-70 239h2q-12 8 -41.5 28t-55 30t-54.5 10 q-41 0 -63.5 -23.5t-22.5 -54.5t19.5 -51t56.5 -20q25 0 49 8q0 -57 -33 -83t-80 -26q-72 0 -112.5 45t-40.5 111q0 76 60 133t173 57q63 0 107.5 -21.5t97.5 -62.5q47 -35 79.5 -51t75.5 -16q20 0 32 10t12 25q0 29 -33 43q7 1 14 1q41 0 65 -20q28 -24 29 -59 q0 -29 -19.5 -50.5t-58.5 -29.5l363 -1260l338 1233q2 8 2 16q0 32 -33 52q-41 24 -84 24l4 35q16 -2 45 -2q55 0 101.5 14.5t109.5 41.5q12 4 53 20t84 27l-4 -35q-51 -18 -100 -59.5t-78 -100.5l-223 -825q12 -47 57 -92q-49 -4 -90 -33l-198 -737h-101l-213 741 q-41 25 -84 29q35 35 54 77l-144 498l-131 -483q12 -47 57 -92q-49 -4 -90 -33l-198 -737h-101l-213 741q-41 25 -84 29q35 35 54 77l-252 875q-20 10 -62 35q-66 39 -114 57t-115 18q-55 0 -87 -29.5t-32 -70.5q0 -33 23.5 -57.5t66.5 -24.5q29 0 62 12v-6q0 -66 -39 -96 q-41 -32 -99 -31q-90 0 -139 54.5t-49 132.5z" />
<glyph unicode="X" horiz-adv-x="1599" d="M0 1550q0 59 29.5 113.5t88 88.5t138.5 34q84 0 152.5 -25.5t160.5 -77.5q78 -43 127 -63.5t105 -20.5q29 0 51 20.5t22 45.5q0 31 -38 49q12 4 36 4q43 0 67 -26.5t24 -63.5q1 -51 -45 -91q-41 -36 -111 -36h-14q-14 0 -21 2q74 -182 303 -663l324 716q1 7 1 14 q0 30 -29 48q-36 22 -77 22l9 35q14 -2 45 -2q55 0 104 14.5t113 41.5q14 6 59 21t86 26l-10 -35q-53 -18 -108.5 -59.5t-92.5 -100.5l-375 -850l316 -657l67 -131q53 -106 85 -159.5t69 -85.5t84 -32q72 0 104.5 52.5t32.5 136.5q41 -2 63.5 -23.5t22.5 -54.5 q0 -39 -30.5 -77t-91 -63.5t-144.5 -25.5q-143 0 -238.5 56.5t-153 141.5t-118.5 216l-277 600l-276 -645q-4 -12 -4 -21q0 -33 35 -51.5t71 -18.5l-8 -34q-14 2 -45 2q-55 0 -104 -14.5t-113 -41.5q-14 -6 -59 -21.5t-86 -25.5l10 35q53 16 107.5 57t91.5 101l329 788 l-407 893q-78 39 -164 39q-55 0 -87 -29.5t-32 -70.5q0 -33 23.5 -57.5t66.5 -24.5q29 0 62 12v-6q0 -65 -39 -95q-41 -32 -99 -32q-90 0 -139 54.5t-49 131.5z" />
<glyph unicode="Y" horiz-adv-x="1654" d="M0 1608q0 59 29.5 113.5t88 88t138.5 33.5q84 0 152.5 -25.5t160.5 -76.5q78 -43 127 -63.5t105 -20.5q29 0 51 20.5t22 44.5q0 31 -38 50q12 4 36 4q43 0 67 -27t24 -63q0 -41 -29 -76t-82 -47l303 -818l268 807q2 6 2 19q0 33 -33.5 51t-70.5 18l8 35q14 -2 45 -2 q55 0 104.5 14.5t112.5 41.5q14 6 59.5 21t86.5 26l-11 -35q-57 -18 -113.5 -62.5t-90.5 -107.5l-262 -807q18 -45 57 -80q-61 -12 -96 -41l-13 -39v-485q6 -37 41 -61.5t80 -37.5v-34q-10 2 -31 2q-90 0 -182 -62.5t-250 -204.5l-55 -49v35q86 111 127 205q39 90 39 213v12 h2v467l-397 1012q-20 10 -62 35q-63 37 -111.5 55t-115.5 18q-55 0 -87 -29.5t-32 -70.5q0 -33 23.5 -57.5t66.5 -24.5q29 0 62 12v-6q0 -65 -39 -96q-41 -31 -99 -31q-90 0 -139 54.5t-49 132.5zM864 666q19 18 33 44.5t18 53.5l54 -137q-18 16 -48 26.5t-57 12.5z" />
<glyph unicode="Z" horiz-adv-x="1171" d="M0 1516q0 68 36 129t109.5 99t182.5 38q88 0 164.5 -30t181.5 -87q92 -49 150.5 -72.5t117.5 -23.5q29 0 44 14t15 35q0 16 -11 32.5t-34 26.5q11 1 22 1q57 0 90 -28q40 -32 40 -81q0 -37 -24.5 -66.5t-69.5 -42.5l-328 -749q12 -49 43 -84q-53 -4 -92 -27l-240 -549 q109 -8 192 -59t193 -148q78 -66 127 -102.5t111.5 -62t134.5 -25.5q59 0 92 23.5t33 56.5t-27.5 56.5t-74.5 23.5q-33 0 -70 -15q14 72 60 106t110 34q37 0 63 -9q74 -18 116 -76.5t42 -129.5q0 -63 -36 -120t-111.5 -92.5t-186.5 -35.5q-37 0 -57 2q-90 8 -164 45t-129 88 t-135 135q-92 96 -157.5 153.5t-158 97.5t-210.5 40v61l264 588q-2 25 -16.5 51.5t-30.5 44.5q23 0 52.5 10.5t53.5 26.5l299 666q-41 14 -84 34.5t-80 41.5q-82 45 -140 66.5t-136 21.5q-66 0 -102.5 -35t-36.5 -82q0 -39 27.5 -66.5t78.5 -27.5q31 0 70 12q0 -80 -46 -116 t-112 -36q-98 0 -156.5 63.5t-58.5 154.5z" />
<glyph unicode="[" horiz-adv-x="802" d="M61 711q49 20 82 69v817l598 2v-96l-368 -2v-721q33 -49 82 -69q-61 -33 -82 -70v-741l368 2v-97l-598 -2v838q-20 37 -82 70z" />
<glyph unicode="\" horiz-adv-x="790" d="M61 1599h103l565 -1738h-102z" />
<glyph unicode="]" horiz-adv-x="802" d="M61 -98l369 -2v741q-20 37 -82 70q49 20 82 69v721l-369 2v96l369 -2h229v-817q33 -49 82 -69q-62 -33 -82 -70v-838l-598 2v97z" />
<glyph unicode="^" horiz-adv-x="550" d="M61 1004l172 436h109l147 -434h-116l-84 264l-99 -266h-129z" />
<glyph unicode="_" horiz-adv-x="892" d="M61 -59h770v-129h-770v129z" />
<glyph unicode="a" horiz-adv-x="1310" d="M61 -8l2 35q47 4 88.5 26.5t59.5 65.5l135 506q-6 23 -22.5 47t-34.5 41q49 6 94 43l149 559q-18 31 -50.5 52.5t-69.5 31.5l-4 35q135 -16 251 -17q104 0 224 17l4 -35q-47 -12 -80 -37t-33 -59q0 -14 2 -21l150 -522q43 -39 98 -47q-49 -45 -59 -90l145 -504h2 q8 -33 46 -57.5t87 -38.5l4 -35q-80 8 -159 12h-158q-80 -2 -160 -12l-4 35q53 15 87 39q28 20 28 45q0 6 -2 12l-105 362l-375 -2l-98 -366q-1 -7 -1 -14q0 -31 24 -47q28 -20 73 -25l-4 -35q-92 10 -166 10q-76 0 -168 -10zM428 575l322 3l-166 575z" />
<glyph unicode="b" horiz-adv-x="1165" d="M61 -14v34q51 18 87 49t36 72v500q-20 37 -82 70q49 20 82 69v510q0 41 -35.5 72t-87.5 49v35q74 -14 379 -14h127q141 0 240.5 -48.5t150 -127t50.5 -166.5q0 -78 -41 -148t-121 -115t-193 -51q20 1 39 1q119 0 207 -43q102 -50 153.5 -139t51.5 -192q0 -109 -56 -205 t-166 -154q-103 -54 -244 -54h-20l-69 2q-174 6 -301 6t-187 -12zM414 141q0 -43 60 -67q52 -20 131 -20q13 0 28 1q110 2 175.5 96.5t65.5 219.5q0 90 -34.5 170t-104 132t-170.5 54l-151 2v-588zM414 799l108 2q123 2 189.5 91t66.5 208q0 109 -53 186.5t-147 77.5 q-76 0 -120 -16.5t-44 -57.5v-491z" />
<glyph unicode="c" horiz-adv-x="1173" d="M61 711q51 23 80 67q16 184 96 340q79 156 221 247q133 85 310 85h23q104 -4 176.5 -49t108.5 -113.5t36 -144.5q0 -106 -68.5 -184t-191.5 -78q-109 0 -169 55t-60 129q0 55 33.5 99t97.5 59q-18 -31 -19 -70q0 -45 28 -75.5t83 -30.5q68 0 103.5 38.5t35.5 96.5 q0 49 -25.5 97t-73.5 77.5t-112 29.5q-164 0 -264 -177t-121 -431q29 -45 80 -67q-25 -12 -48.5 -33t-35.5 -41q4 -160 45 -296t119 -218t186 -82q84 0 128 62.5t44 146.5q0 59 -21.5 107.5t-58.5 68.5q43 12 78 12q80 0 127 -53t47 -129q0 -68 -40 -131.5t-125 -103 t-207 -39.5q-176 0 -303.5 92t-194 244.5t-72.5 330.5q-25 37 -76 62zM385 659v33v-33z" />
<glyph unicode="d" horiz-adv-x="1284" d="M61 -14v34q51 18 87 49t36 72v500q-20 37 -82 70q49 20 82 69v510q0 41 -35.5 72t-87.5 49v35q74 -14 379 -14h121q176 0 304 -91.5t198 -240t82 -324.5q33 -47 78 -65q-51 -27 -78 -64q-10 -174 -79 -324.5t-192.5 -241.5t-291.5 -91q-109 0 -248 4l-135 2 q-96 0 -138 -10zM414 141q0 -45 42 -67q38 -20 120 -19h16q141 2 224 174t93 416q-12 18 -35.5 36.5t-44.5 29.5q43 16 78 65q-12 246 -98 417t-231 171q-76 0 -120 -16.5t-44 -57.5v-506q14 -25 37.5 -44t46.5 -29q-25 -12 -48.5 -33t-35.5 -41v-496z" />
<glyph unicode="e" horiz-adv-x="1087" d="M61 14q51 14 87 45t36 78v504q-20 37 -82 70q49 20 82 69v504q0 47 -35.5 78t-87.5 45v35q59 -14 187.5 -21.5t269.5 -7.5q334 0 410 39l18 -18q-16 -76 -16 -185q0 -129 20 -256h-65q-49 188 -114.5 269t-166.5 86q-19 1 -36 1q-154 0 -154 -65v-504l223 2q45 6 69.5 38 t30.5 73h35q-14 -92 -14 -201q0 -106 14 -200h-35q-8 78 -35.5 134t-76.5 60l-211 -2v-547q0 -35 46 -50t113 -15q35 0 52 2q80 6 118.5 50t51 102.5t18.5 154.5q6 115 27.5 172t95.5 57q41 0 65.5 -26.5t24.5 -57.5q0 -30 -18.5 -48.5t-44.5 -18.5q-33 0 -54 24 q-4 -16 -4 -59q0 -100 30 -234.5t73 -201.5l-19 -19q-43 23 -157.5 33t-264.5 10q-154 0 -298 -9t-208 -23v34z" />
<glyph unicode="f" horiz-adv-x="1011" d="M61 -14v34q51 14 87 44t36 73v504q-20 37 -82 70q49 20 82 69v504q0 47 -35.5 78t-87.5 45v35q59 -14 187.5 -21.5t269.5 -7.5q334 0 410 39l18 -18q-16 -76 -16 -185q0 -129 20 -256h-65q-49 188 -114.5 269t-166.5 86q-19 1 -36 1q-154 0 -154 -65v-504l223 2 q45 6 69.5 38t30.5 73h35q-14 -92 -14 -201q0 -106 14 -200h-35q-8 78 -35.5 134t-76.5 60l-211 -2v-547q0 -43 35.5 -72.5t87.5 -44.5v-34q-74 10 -164 14h-125q-104 -4 -187 -14z" />
<glyph unicode="g" horiz-adv-x="1284" d="M61 711q23 10 46.5 29.5t37.5 43.5v-12q14 180 87 335t206 250t314 95q84 0 215 -20q86 -14 127 -15q27 0 39 6l18 -18q-25 -111 -25 -272q0 -72 4 -132h-65q-25 182 -108 281.5t-195 103.5q-172 -8 -272.5 -183t-114.5 -425q29 -45 80 -67q-59 -33 -80 -68 q6 -164 50 -302t124 -222t190 -84q168 0 168 137v393q0 51 -71 51q-45 0 -70 -23.5t-25 -53.5q0 -25 13.5 -41.5t38.5 -16.5q20 0 49 17q24 -24 24 -57q0 -38 -28.5 -63.5t-79.5 -25.5q-55 0 -90 42t-35 100q0 70 52 121t155 51q45 0 78.5 -12.5t87.5 -39.5q47 -27 84.5 -40 t80.5 -13q32 0 52 10v-22q-8 -25 -35 -38t-55 -13v-455h-21q-36 0 -63 -5q-35 -7 -80 -22q-61 -20 -115.5 -30.5t-142.5 -10.5q-172 0 -297 92.5t-192.5 243t-78.5 328.5q-23 41 -82 72z" />
<glyph unicode="h" horiz-adv-x="1275" d="M61 -14v34q51 14 87 44t36 73v504q-12 20 -35.5 38.5t-44.5 29.5q51 23 80 67v506q0 43 -35.5 72.5t-87.5 44.5v35q131 -16 250 -17q104 0 226 17v-35q-51 -14 -87 -44t-36 -73v-504l448 4v500q0 43 -35.5 72.5t-87.5 44.5v35q131 -16 250 -17q104 0 225 17v-35 q-51 -14 -86.5 -44t-35.5 -73v-504q29 -45 79 -67q-20 -10 -43.5 -28.5t-35.5 -39.5v-506q0 -43 35.5 -72.5t86.5 -44.5v-34q-74 10 -163 14h-125q-104 -4 -187 -14v34q51 14 87 44t36 73v549l-448 -2v-547q0 -43 35.5 -72.5t87.5 -44.5v-34q-74 10 -164 14h-125 q-104 -4 -187 -14z" />
<glyph unicode="i" horiz-adv-x="598" d="M61 -14v34q51 14 87 44t36 73v504q-20 37 -82 70q49 20 82 69v502q0 43 -35.5 72.5t-87.5 44.5v35q131 -16 250 -17q104 0 226 17v-35q-51 -14 -87 -44t-36 -73v-502q33 -49 82 -69q-61 -33 -82 -70v-504q0 -43 35.5 -72.5t87.5 -44.5v-34q-74 10 -164 14h-125 q-104 -4 -187 -14z" />
<glyph unicode="j" horiz-adv-x="1052" d="M61 260q0 100 71 174t192 74q92 0 143 -51t51 -119q0 -47 -25.5 -83t-70.5 -48q4 20 4 33q0 39 -22.5 67.5t-71.5 28.5q-47 0 -73 -35t-26 -86q0 -72 48.5 -130t132.5 -58q104 0 152 71.5t60.5 193.5t12.5 349q-20 37 -82 70q49 20 82 69v502q0 43 -36 72.5t-87 44.5v35 q121 -16 225 -17q119 0 250 17v-35q-51 -14 -87 -44t-36 -73v-504q29 -45 80 -67q-20 -10 -43.5 -28.5t-36.5 -39.5v-2v-82q0 -154 -26.5 -277.5t-123.5 -215t-288 -91.5q-121 0 -205 41t-124 105.5t-40 138.5z" />
<glyph unicode="k" horiz-adv-x="1251" d="M61 -14v34q51 14 87 44t36 73v506q-12 20 -35.5 38.5t-44.5 29.5q51 23 80 67v504q0 43 -35.5 72.5t-87.5 44.5v35q131 -16 250 -17q104 0 226 17v-35q-51 -14 -87 -44t-36 -73v-547l403 574q12 23 12 39q0 25 -22.5 37t-54.5 14l2 35q74 -8 172 -9q100 0 174 9l-2 -35 q-53 -4 -105.5 -26.5t-85.5 -65.5l-319 -457h168l297 -731q8 -33 46 -57.5t87 -38.5l4 -35q-80 8 -160 12h-158q-80 -4 -159 -12l-4 35q53 15 87 39q27 20 27 45q0 6 -2 12h2l-272 680l-137 -197v-465q0 -43 35.5 -72.5t87.5 -44.5v-34q-74 10 -164 14h-125 q-104 -4 -187 -14z" />
<glyph unicode="l" horiz-adv-x="1067" d="M61 14q51 14 87 45t36 78v500q-12 20 -35.5 40.5t-48.5 33.5q23 10 46.5 29.5t37.5 43.5v498q0 43 -35.5 72.5t-87.5 44.5v35q131 -16 250 -17q104 0 226 17v-35q-51 -14 -87 -44t-36 -73v-504q29 -45 80 -67q-20 -10 -44 -28.5t-36 -39.5v-506q0 -35 40 -50t101 -15 q33 0 49 2q80 6 119 50t51 102.5t19 154.5q6 115 27.5 172t94.5 57q41 0 66 -26.5t25 -57.5q0 -30 -18.5 -48.5t-45.5 -18.5q-31 0 -53 24q-4 -16 -4 -59q0 -100 29.5 -234.5t72.5 -201.5l-18 -19q-43 23 -156 33t-258 10q-147 0 -288.5 -9t-205.5 -23v34z" />
<glyph unicode="m" horiz-adv-x="1466" d="M61 1442q143 -14 240 -15q98 0 238 15l4 -35q-51 -13 -85 -37q-29 -20 -29 -47q0 -5 1 -10l303 -936l303 958q-33 45 -106 64v35q131 -16 250 -17q104 0 225 17v-35q-51 -14 -87 -44t-36 -73v-510q29 -45 80 -67q-20 -10 -44 -29t-36 -39v-518q8 -37 42 -61.5t79 -37.5 v-34q-121 16 -225 16q-119 0 -250 -16v34q51 14 87 44t36 73h2v955l-344 -1092h-95l-329 1047l2 -926q6 -43 37.5 -67.5t72.5 -30.5v-35q-92 14 -159 14q-66 0 -160 -14v35q45 8 77.5 35.5t34.5 78.5v502q-12 20 -36.5 39.5t-47.5 32.5q23 10 45.5 29.5t36.5 41.5v551 q-16 25 -50 44.5t-72 29.5z" />
<glyph unicode="n" horiz-adv-x="1249" d="M61 1442q143 -14 240 -15q98 0 238 15l4 -35q-37 -10 -69 -26.5t-42 -39.5l551 -884l-2 835q0 53 -33 82t-80 37v35q94 -14 160 -14q68 0 160 14v-35q-43 -8 -76 -34.5t-37 -76.5l2 -524q35 -49 78 -65q-51 -27 -78 -64l2 -647h-96v4l-696 1159l4 -1036q6 -43 37.5 -67.5 t72.5 -30.5v-35q-74 14 -159 14q-86 0 -160 -14v35q45 8 78 35.5t35 78.5v496q-25 43 -84 72q51 23 82 71v539l-19 31q-37 37 -108 55z" />
<glyph unicode="o" horiz-adv-x="1357" d="M61 711q47 23 82 69q10 178 76 330t185.5 245t283.5 93q154 0 267.5 -92t179 -243.5t77.5 -328.5q14 -25 38 -44t46 -29q-62 -33 -82 -70q-10 -178 -73.5 -327.5t-181 -239.5t-281.5 -90q-160 0 -276.5 91t-181 240.5t-77.5 325.5q-25 39 -82 70zM379 643 q10 -250 91 -423t218 -173q135 0 210 172t81 422q-25 39 -82 70q49 23 80 65q-14 256 -94 432t-207 176q-88 0 -152.5 -83.5t-101.5 -222t-43 -300.5q29 -45 80 -67q-20 -10 -44 -28.5t-36 -39.5z" />
<glyph unicode="p" horiz-adv-x="1157" d="M61 -14v34q51 14 87 44t36 73v504q-20 37 -82 70q49 20 82 69v510q0 41 -35.5 72t-87.5 49v35q63 -12 209 -12q80 0 155 2t140 4l53 2q14 1 28 1q132 0 230 -53q109 -57 164.5 -154t55.5 -208q0 -109 -55.5 -204t-165 -154.5t-265.5 -59.5l-196 2v-475q0 -43 35.5 -72.5 t87.5 -44.5v-34q-121 16 -226 16q-119 0 -250 -16zM414 702l192 3q129 0 193.5 91t64.5 222q0 88 -28.5 171t-82 135t-120.5 52h-16q-87 0 -143 -20q-60 -23 -60 -66v-588z" />
<glyph unicode="q" horiz-adv-x="1357" d="M61 711q47 23 82 69q10 178 76 330t185.5 245t283.5 93q154 0 267.5 -92t179 -243.5t77.5 -328.5q14 -25 38 -44t46 -29q-61 -33 -82 -70q-10 -178 -73.5 -327.5t-181 -239.5t-281.5 -90q-160 0 -276.5 91t-181 240.5t-77.5 325.5q-25 39 -82 70zM379 643 q10 -250 91 -423t218 -173q135 0 208 171t77 421q-23 41 -82 72q51 23 80 67q-10 162 -48 300.5t-101.5 222t-145.5 83.5q-88 0 -152.5 -83.5t-101.5 -222t-43 -300.5q29 -45 80 -67q-20 -10 -44 -28.5t-36 -39.5zM532 -129q0 45 39 75.5t115 30.5q82 0 126 -20t99 -66 q59 -51 115 -79q66 -33 113 -33q92 0 131 106q24 -30 24 -78q0 -78 -51 -140t-135 -62q-45 0 -104 24q-45 20 -77 54t-81 100q-49 68 -86 100.5t-84 32.5q-31 0 -48.5 -25.5t-17.5 -64.5q0 -29 8 -53q-39 6 -62.5 34.5t-23.5 63.5z" />
<glyph unicode="r" horiz-adv-x="1292" d="M61 -14v34q51 14 87 44t36 73v504q-20 37 -82 70q49 20 82 69v510q0 41 -35.5 72t-87.5 49v35q63 -12 209 -12q80 0 155 2t140 4l53 2q14 1 28 1q132 1 230 -51q108 -56 164 -150.5t56 -203.5q0 -125 -75 -229t-214 -150l270 -540l2 -4q16 -33 58.5 -56.5t93.5 -35.5v-35 q-84 10 -162 12h-158q-76 -2 -157 -12v35q41 10 69.5 29.5t28.5 45.5q0 6 -4 19l-256 514l-178 2v-496q0 -43 35.5 -72.5t87.5 -44.5v-34q-121 16 -226 16q-119 0 -250 -16zM414 702l192 3q129 0 193.5 91t64.5 222q0 88 -28.5 171t-82 135t-120.5 52h-16q-87 0 -143 -20 q-60 -22 -60 -66v-588z" />
<glyph unicode="s" horiz-adv-x="1050" d="M61 283q0 104 63.5 190t166.5 105q31 6 61 6q88 0 142.5 -49.5t54.5 -114.5q0 -41 -23.5 -79t-70.5 -65q2 8 2 15q0 30 -26 58q-32 34 -83 34q-18 0 -41 -6q-45 -12 -70.5 -54t-25.5 -96q0 -84 63.5 -146.5t184.5 -62.5q92 0 158.5 40t101.5 105.5t35 141.5q0 90 -47 164 q-43 70 -175 156q-23 -2 -50 -12.5t-48 -24.5q4 23 -2 52.5t-18 53.5q-109 63 -175.5 111.5t-112.5 114t-46 149.5q0 182 141 277.5t373 95.5q59 0 154 -8q74 -4 96 -4q39 0 63 10l19 -19q-25 -113 -25 -256q0 -88 8 -161h-65q-49 372 -284 372h-1q-115 0 -189.5 -58 t-74.5 -157q0 -25 6 -53q14 -66 79.5 -120t188.5 -126q59 6 90 35q-1 -9 -1 -17q0 -44 18 -79q109 -66 181.5 -131.5t105.5 -147.5q26 -67 26 -141q0 -113 -63.5 -208t-178 -152.5t-258.5 -57.5q-145 0 -241 45t-141.5 118t-45.5 157z" />
<glyph unicode="t" horiz-adv-x="1253" d="M61 985q20 131 21 264q0 111 -16 187l18 18q74 -35 272 -35q104 0 271 15q164 -14 270 -15q199 0 272 35l19 -18q-16 -76 -17 -187q0 -133 21 -264h-66l-12 47q-35 131 -56.5 190.5t-55 92.5t-95.5 35q-14 1 -28 1q-138 0 -138 -77v-494q33 -49 82 -69q-61 -33 -82 -70 v-504q0 -43 36 -72.5t87 -44.5v-34q-74 10 -164 14h-125q-104 -4 -186 -14v34q51 14 87 44t36 73v504q-20 37 -82 70q49 20 82 69v494q0 77 -138 77q-13 0 -28 -1q-61 -2 -95 -35t-55.5 -92.5t-56.5 -190.5l-12 -47h-66z" />
<glyph unicode="u" horiz-adv-x="1226" d="M61 1399v35q131 -16 250 -17q104 0 226 17v-35q-51 -14 -87 -44t-36 -73v-502q33 -49 82 -69q-61 -33 -82 -70q0 -256 16 -375t69.5 -168t172.5 -49q117 0 179 47t84.5 130t25.5 210v201q-12 20 -36 40.5t-48 33.5q23 10 46 29.5t38 41.5l-3 510q0 53 -32.5 82t-79.5 37 v35q94 -14 160 -14q68 0 159 14v-35q-43 -6 -75.5 -33.5t-36.5 -74.5l2 -525q29 -45 80 -67q-51 -23 -78 -66v-199v-14v-8q-6 -436 -381 -436q-209 0 -318.5 71.5t-143.5 177t-34 244.5l2 88q2 25 2 72v2q-12 20 -35.5 38.5t-44.5 29.5q51 23 80 67v504q0 43 -35.5 72.5 t-87.5 44.5z" />
<glyph unicode="v" horiz-adv-x="1312" d="M61 1434q80 -8 160 -13h158q80 4 160 13l4 -35q-53 -14 -87 -39q-28 -20 -28 -45q0 -6 2 -12l297 -1035l283 1047q1 7 1 13q0 32 -24 50q-29 22 -74 25l5 35q74 -8 167 -8q92 0 166 8l-2 -35q-45 -4 -86 -26.5t-61 -65.5l-137 -514q6 -23 22.5 -47.5t34.5 -40.5 q-49 -6 -94 -43l-150 -560q18 -31 51 -52t70 -31l4 -35q-135 16 -252 16q-104 0 -223 -16l-4 35q47 12 80 36.5t33 59.5q0 14 -2 20l-150 523q-43 39 -98 47q49 45 59 90l-145 504h-2q-8 33 -46 57t-87 39z" />
<glyph unicode="w" horiz-adv-x="1990" d="M61 1434q80 -8 160 -13h158q80 4 160 13l4 -35q-53 -14 -87 -39q-28 -20 -28 -45q0 -6 2 -12l297 -1035l217 809l-63 226h-2q-8 33 -46 57t-88 39l-4 35q80 -8 160 -13h158q80 4 160 13l4 -35q-53 -14 -87 -39q-28 -20 -28 -45q0 -6 2 -12l297 -1035l281 1041q1 7 1 13 q0 30 -24 48q-29 20 -74 25l4 35q74 -8 168 -9q92 0 166 9l-2 -35q-47 -4 -88 -26.5t-59 -65.5l-135 -506q6 -23 22 -47.5t35 -40.5q-49 -6 -94 -43l-150 -560q18 -31 51 -52t70 -31l4 -35q-135 16 -252 16q-104 0 -223 -16l-4 35q47 12 80 36.5t33 59.5q0 14 -3 20 l-221 768l-215 -801q18 -31 51 -52t70 -31l4 -35q-135 16 -252 16q-104 0 -223 -16l-4 35q47 12 80 36.5t33 59.5q0 14 -2 20l-150 523q-43 39 -98 47q49 45 59 90l-145 504h-2q-8 33 -46 57t-87 39z" />
<glyph unicode="x" horiz-adv-x="1261" d="M59 1409l2 35q147 -14 250 -14q106 0 244 14l10 -35q-43 -10 -72.5 -30.5t-29.5 -47.5l217 -457l194 445q1 7 1 14q1 31 -23 47q-28 20 -74 25l4 35q74 -8 168 -8q92 0 166 8l-2 -35q-47 -4 -89 -28.5t-60 -69.5l-232 -527q35 -47 82 -69q-23 -10 -45 -29l268 -569 q16 -29 62.5 -53.5t101.5 -39.5l-2 -34q-143 14 -250 14q-104 0 -243 -14l-11 34q45 12 75 33t26 49l-248 523l-221 -514q-1 -5 -1 -10q1 -33 25 -51q28 -20 72 -25l-4 -35q-74 8 -166 8q-94 0 -168 -8l2 35q47 4 89 28.5t61 69.5h2l235 551q-20 20 -53 37q33 12 63 47 l-270 569q-20 27 -63 48.5t-93 33.5zM729 768l2 -4v8z" />
<glyph unicode="y" horiz-adv-x="1222" d="M59 1409l2 35q147 -14 250 -14q106 0 244 14l10 -35q-47 -12 -76.5 -33.5t-23.5 -52.5l268 -686l185 672q2 8 2 22q0 35 -28 52.5t-69 21.5l4 35q74 -8 168 -8q92 0 166 8l-2 -35q-47 -4 -89 -28.5t-60 -69.5l-156 -512q6 -23 22.5 -46.5t34.5 -39.5q-23 -4 -50 -16.5 t-48 -30.5l-45 -148v-377q0 -43 36 -72.5t87 -44.5v-34q-121 16 -225 16q-119 0 -250 -16v34q51 14 87 44t36 73v379h2l-60 150q-20 18 -49 28.5t-53 12.5q39 39 51 84l-211 532q-18 27 -63 49.5t-97 36.5z" />
<glyph unicode="z" horiz-adv-x="1105" d="M61 -14v34q25 8 52.5 35t50.5 70l252 561q-2 23 -16.5 50.5t-30.5 45.5q23 0 52.5 10.5t53.5 26.5l-4 -10l215 481q4 51 -160 51l-67 -2q-100 -4 -166 -84.5t-115 -269.5h-65q20 127 20 256q0 109 -16 184l18 19q45 -18 186.5 -28.5t307.5 -10.5q135 0 248.5 8t166.5 23 v-37q-31 -6 -61.5 -37t-52.5 -86h-2l-242 -553q4 -27 17.5 -53.5t27.5 -42.5q-27 -2 -55.5 -10.5t-46.5 -22.5l-195 -442q-4 -6 -4 -19q0 -47 150 -47l67 2q100 4 166 85t115 269h65q-20 -127 -20 -256q0 -109 16 -184l-18 -18q-70 36 -365 36h-16q-154 0 -307.5 -10 t-221.5 -24z" />
<glyph unicode="{" horiz-adv-x="684" d="M61 637v80q76 0 114 52t51.5 130t21.5 209q8 141 22.5 230t60.5 157t134 82q10 2 29 2q43 0 71.5 -19.5t43 -46t14.5 -43.5q-8 2 -23 3q-61 0 -92 -45.5t-39 -113t-10 -186.5q-2 -135 -14.5 -222t-55.5 -151.5t-133 -76.5q90 -12 132 -74.5t52.5 -144.5t12.5 -215 q0 -123 9 -196t46 -120t115 -47q0 -35 -45.5 -69.5t-112.5 -34.5q-90 0 -135 60.5t-59.5 146.5t-24.5 235q-8 137 -20.5 218t-51.5 138.5t-113 61.5z" />
<glyph unicode="|" horiz-adv-x="598" d="M61 -340q51 14 87 45t36 74v862q-20 37 -82 70q49 20 82 69v506q0 43 -35.5 73t-87.5 44v35q131 -16 250 -17q104 0 226 17v-35q-51 -14 -87 -44t-36 -73v-506q33 -49 82 -69q-61 -33 -82 -70v-862q0 -43 35.5 -74t87.5 -45v-35q-121 16 -226 17q-119 0 -250 -17v35z" />
<glyph unicode="}" horiz-adv-x="684" d="M61 -119q78 0 115 47t46 120t9 196q2 133 12.5 215t52.5 144.5t132 74.5q-90 12 -134 76.5t-55.5 150.5t-13.5 223q-2 125 -11 196t-44 114t-109 32q0 16 14.5 43t43 46.5t71.5 19.5q18 0 29 -2q88 -14 134 -82t60.5 -157t22.5 -230q8 -131 21.5 -209t51.5 -130t114 -52 v-80q-74 -4 -113 -61.5t-51.5 -138.5t-20.5 -218q-10 -150 -24.5 -235.5t-59.5 -146t-135 -60.5q-68 0 -113 34.5t-45 69.5z" />
<glyph unicode="~" horiz-adv-x="878" d="M61 618q0 66 44.5 109t107.5 47t115.5 -12.5t132.5 -52.5q59 -29 104 -44.5t94 -15.5q104 0 119 113q39 -51 39 -115q0 -57 -37 -95t-108 -38q-61 0 -122 20.5t-144 57.5q-59 29 -101.5 43t-77.5 14q-51 0 -87 -42t-50 -97q-29 55 -29 108z" />
<glyph unicode="&#xa1;" horiz-adv-x="661" d="M61 -283q43 12 78 37t43 60l39 534q-35 43 -71 58q59 31 81 71l25 320h147l25 -324q12 -20 35.5 -38.5t44.5 -28.5q-41 -18 -72 -56l39 -516h2q0 -43 36 -72.5t87 -44.5v-34q-121 16 -256 16q-152 0 -283 -16v34zM231 1024q0 41 28 68.5t69 27.5t67.5 -27.5t26.5 -68.5 q0 -39 -26.5 -66.5t-67.5 -27.5t-69 26.5t-28 67.5z" />
<glyph unicode="&#xa2;" horiz-adv-x="1112" d="M61 711q51 23 80 67q8 143 63.5 271.5t160 217.5t247.5 113v25q-6 43 -37.5 67.5t-72.5 30.5v35q94 -14 160 -14q68 0 159 14v-35q-45 -8 -77.5 -35.5t-34.5 -78.5h14q106 0 180 -39t111 -100.5t37 -131.5q0 -66 -33 -124t-97.5 -94t-152.5 -36q-31 0 -59 6l2 -663 q76 10 113.5 58t37.5 110q0 35 -13 64.5t-36 43.5q45 17 82 17q63 0 101 -38t38 -91q0 -78 -82 -143.5t-241 -80.5v-84q6 -43 37.5 -67.5t72.5 -30.5v-35q-92 14 -159 15q-66 0 -160 -15v35q45 8 77.5 36t34.5 79v65q-201 12 -322.5 152.5t-146.5 345.5v-6 q-12 20 -35.5 40.5t-48.5 33.5zM385 774q37 -47 78 -63q-49 -25 -76 -60q12 -166 70.5 -285.5t156.5 -150.5l-2 705q-47 47 -47 118q0 35 13.5 65t33.5 44v-10v159q-100 -53 -159.5 -198.5t-67.5 -323.5zM707 1325l2 -283q29 -6 47 -6q70 0 110.5 42t40.5 100q0 59 -48 103 t-136 44h-16z" />
<glyph unicode="&#xa3;" horiz-adv-x="1089" d="M63 1004q0 121 59.5 221t173.5 160.5t269 60.5q170 0 256 -79t86 -187q0 -98 -64.5 -171t-170.5 -73q-113 0 -169.5 49t-56.5 119q0 61 39 108.5t103 55.5q-18 -27 -19 -58q0 -37 31 -59.5t72 -22.5t68.5 32t27.5 75q0 59 -52 103t-157 44q-104 0 -175 -77.5t-71 -204.5 q0 -141 93 -295q41 -8 63 -8q16 0 37 4q-31 -61 -23 -105l2 -4q43 -53 43 -121q0 -90 -73.5 -196.5t-227.5 -220.5q154 104 293 104q106 0 256 -61q55 -23 98 -23q49 0 80 28.5t39 88.5q35 -41 35 -113q0 -86 -53 -149.5t-162 -63.5q-31 0 -86 10q-102 23 -240 82 q-61 25 -89.5 35t-59.5 10q-39 0 -80 -23.5t-94 -78.5q-6 6 -18.5 17.5t-16.5 31t-2 55.5q119 109 174 189t55 143t-57 121q-41 4 -96 -16q8 18 8 55q0 29 -6 53q-70 82 -106 172t-36 183z" />
<glyph unicode="&#xa4;" horiz-adv-x="888" d="M61 1026l78 82l135 -137q72 33 148 33q104 0 190 -60l140 143l75 -79l-145 -127q80 -92 80 -219q0 -119 -72 -213l131 -115l-80 -86l-125 129q-78 -55 -172 -55q-96 0 -172 38l-106 -137l-78 78l105 113q-53 47 -83 110.5t-30 137.5q0 72 28.5 137t79.5 112zM215 662 q0 -86 62.5 -148.5t148.5 -62.5t146.5 62t60.5 149q0 88 -59.5 147t-147.5 59q-86 0 -148.5 -60t-62.5 -146z" />
<glyph unicode="&#xa5;" horiz-adv-x="1222" d="M59 1409l2 35q147 -14 250 -14q106 0 244 14l10 -35q-43 -10 -72.5 -29.5t-29.5 -46.5q0 -8 6 -20h-4l268 -676l185 672q2 8 2 22q0 35 -28 52.5t-69 21.5l4 35q74 -8 168 -8q92 0 166 8l-2 -35q-47 -4 -89 -28.5t-60 -69.5l-156 -512q6 -23 22.5 -46.5t34.5 -39.5 q-23 -4 -50 -16.5t-48 -30.5l-25 -80l232 2v-97h-252v-112l252 2v-96h-252v-144q0 -43 36 -72.5t87 -44.5v-34q-121 16 -225 16q-119 0 -250 -16v34q51 14 87 44t36 73v142h-256v94l256 2v110h-256v95l231 2l-33 84q-20 18 -49 28.5t-53 12.5q41 45 51 86l-209 528 q-16 27 -62 50.5t-100 37.5z" />
<glyph unicode="&#xa6;" horiz-adv-x="598" d="M61 -340q51 14 87 45t36 74v600h230v-600q0 -43 35.5 -74t87.5 -45v-35q-121 16 -226 17q-119 0 -250 -17v35zM61 1403v35q131 -16 250 -17q104 0 226 17v-35q-51 -14 -87 -44t-36 -73v-612h-230v612q0 43 -35.5 73t-87.5 44z" />
<glyph unicode="&#xa7;" horiz-adv-x="1110" d="M61 -78q0 72 51.5 123t143.5 51q45 0 81 -23.5t52.5 -59.5t9.5 -70q-68 -6 -101.5 -35t-33.5 -70q0 -53 57.5 -96t149.5 -43q111 0 181.5 64.5t70.5 152.5q0 92 -76 162q-41 39 -104.5 82t-126.5 84q-115 72 -185.5 124t-120 118.5t-49.5 140.5q0 88 63.5 173t184.5 126 q-145 121 -145 239q0 61 41 128t140 114t259 47q156 0 241 -50t85 -120q0 -45 -40 -87t-114 -67q12 25 12 64q0 63 -40.5 116.5t-133.5 69.5q-29 4 -41 4q-72 0 -118.5 -42t-46.5 -107q0 -53 30 -105q31 -53 94.5 -100t172.5 -112q145 -90 224 -156t109 -152q11 -30 11 -57 q0 -80 -63.5 -159t-168.5 -120q88 -72 125 -170q16 -45 16 -94q0 -92 -54 -181t-163.5 -147.5t-269.5 -58.5q-129 0 -222 45t-140.5 113.5t-47.5 140.5zM285 690q0 -51 34 -98q43 -57 110 -99t169 -92l104 -53q47 20 74 62.5t27 89.5q0 70 -53 116q-39 39 -89.5 73 t-136.5 89l-118 78q-55 -25 -88 -70t-33 -96z" />
<glyph unicode="&#xa9;" horiz-adv-x="520" d="M61 193q0 84 58.5 141t140.5 57q84 0 141.5 -57.5t57.5 -140.5q0 -82 -57.5 -140.5t-141.5 -58.5q-82 0 -140.5 58.5t-58.5 140.5zM98 193q0 -68 47.5 -115t114.5 -47q68 0 115 47t47 115t-47 114.5t-115 46.5t-115 -47t-47 -114zM168 190q0 33 12 58t35 39q25 12 51 12 q31 0 51 -14t33 -47l-41 -11q-6 20 -18 27q-10 8 -27 8q-23 0 -37 -16t-14 -53q0 -39 14 -56q16 -16 35 -16q18 0 29 10q12 10 18 33l41 -14q-10 -31 -33 -50q-23 -16 -51 -16q-44 0 -69 29q-29 29 -29 77z" />
<glyph unicode="&#xab;" horiz-adv-x="1046" d="M61 582l340 368h207l-329 -368l329 -369h-207zM438 582l340 368h207l-330 -368l330 -369h-207z" />
<glyph unicode="&#xac;" horiz-adv-x="1021" d="M61 694v129h900v-436h-123v307h-777z" />
<glyph unicode="&#xad;" d="M61 471v129h621v-129h-621z" />
<glyph unicode="&#xae;" horiz-adv-x="342" d="M61 1323q0 45 33 78t78 33t77 -33t32 -78t-31 -77t-78 -32q-45 0 -78 32t-33 77zM88 1323q0 -33 25.5 -58.5t58.5 -25.5q35 0 59.5 25.5t24.5 58.5q0 35 -24.5 59.5t-59.5 24.5q-33 0 -58.5 -24.5t-25.5 -59.5zM127 1266v114h53q41 0 41 -32q0 -27 -33 -31l33 -51h-24 l-37 51h-8v-51h-25zM152 1331h22q6 0 15.5 4t9.5 13q0 16 -25 16h-22v-33z" />
<glyph unicode="&#xb0;" horiz-adv-x="342" d="M61 1323q0 45 33 78t78 33t77 -33t32 -78t-31 -77t-78 -32q-45 0 -78 32t-33 77zM88 1323q0 -33 25.5 -58.5t58.5 -25.5q35 0 59.5 25.5t24.5 58.5q0 35 -24.5 59.5t-59.5 24.5q-33 0 -58.5 -24.5t-25.5 -59.5z" />
<glyph unicode="&#xb1;" horiz-adv-x="1021" d="M61 125v129h900v-129h-900zM61 694v129h385v215h123v-215h392v-129h-392v-231h-123v231h-385z" />
<glyph unicode="&#xb5;" horiz-adv-x="1329" d="M61 997v35q131 -16 250 -16q104 0 226 16v-35q-51 -14 -87 -43.5t-36 -72.5v-680q33 -55 83 -94t103 -44q76 -6 133.5 29t92 91.5t42.5 111.5v586q0 43 -35.5 72.5t-87.5 43.5v35q131 -16 250 -16q104 0 226 16v-35q-51 -14 -87 -43.5t-36 -72.5v-269q33 -47 78 -65 q-51 -27 -78 -64v-200q0 -86 23.5 -127t58.5 -41q23 0 41 17.5t26 43.5q21 -33 21 -72q0 -57 -45 -100t-121 -43q-184 0 -228 160q-41 -45 -108.5 -83t-163.5 -38q-115 0 -188 80v-246q8 -37 41.5 -61.5t79.5 -36.5v-35q-57 8 -168 12t-183 2v766q-27 37 -78 64q45 18 78 65 v271q0 43 -35.5 72.5t-87.5 43.5z" />
<glyph unicode="&#xb6;" horiz-adv-x="1443" d="M61 1112q0 156 46.5 272.5t117 180t146.5 69.5v2h229v-2l782 4v-98h-129v-760q33 -49 82 -69q-61 -33 -82 -70v-719q0 -43 36 -73.5t87 -45.5v-34q-121 16 -225 16q-119 0 -250 -16v34q51 14 87 45t36 74v719q-20 37 -82 70q49 20 82 69v760l-424 -2v-758q33 -49 82 -69 q-61 -33 -82 -70v-719q0 -43 36 -73.5t87 -45.5v-34q-121 16 -225 16q-119 0 -250 -16v34q51 14 87 45t36 74v670q-76 6 -146.5 68.5t-117 179t-46.5 272.5z" />
<glyph unicode="&#xb7;" horiz-adv-x="358" d="M61 551q0 49 34 83t85 34q49 0 83 -34t34 -83q0 -51 -34 -85t-83 -34q-51 0 -85 34t-34 85z" />
<glyph unicode="&#xbb;" horiz-adv-x="1046" d="M61 213l330 369l-330 368h207l340 -368l-340 -369h-207zM438 213l330 369l-330 368h207l340 -368l-340 -369h-207z" />
<glyph unicode="&#xbf;" horiz-adv-x="962" d="M59 92q0 125 73 243t218 206l94 53q23 49 15 98q20 -14 50 -24.5t54 -8.5q47 31 70.5 58.5t23.5 58.5q0 18 -8 35q94 -29 94 -113q0 -80 -79 -166q-10 -20 -11 -59q0 -29 6 -51q-20 10 -48.5 15t-55.5 3q-145 -102 -220 -221t-75 -227q0 -109 71.5 -177.5t203.5 -68.5 q92 0 143 59.5t51 133.5q0 53 -26.5 87.5t-75.5 34.5t-77 -25.5t-28 -66.5q0 -31 10 -55q-59 8 -92.5 50t-33.5 97q0 74 58 128.5t167 54.5q82 0 143.5 -38t94 -98.5t32.5 -130.5q0 -76 -41 -143t-125 -109t-209 -42q-143 0 -248.5 56t-162 149.5t-56.5 203.5zM590 1047 q0 41 26.5 68.5t67.5 27.5t68.5 -28t27.5 -68q0 -41 -27.5 -68t-68.5 -27q-39 0 -66.5 28t-27.5 67z" />
<glyph unicode="&#xd7;" horiz-adv-x="716" d="M61 518l218 209l-193 215l90 82l191 -213l206 199l82 -90l-206 -199l204 -225l-92 -82l-201 223l-217 -209z" />
<glyph unicode="&#xf7;" horiz-adv-x="835" d="M61 694v123h713v-123h-713zM305 338q0 41 27.5 67.5t68.5 26.5t68 -26.5t27 -67.5t-27 -68.5t-68 -27.5t-68.5 27.5t-27.5 68.5zM305 1161q0 41 27.5 67.5t68.5 26.5t68 -26.5t27 -67.5t-27 -68.5t-68 -27.5t-68.5 27.5t-27.5 68.5z" />
<glyph unicode="&#x2000;" horiz-adv-x="1047" />
<glyph unicode="&#x2001;" horiz-adv-x="2095" />
<glyph unicode="&#x2002;" horiz-adv-x="1047" />
<glyph unicode="&#x2003;" horiz-adv-x="2095" />
<glyph unicode="&#x2004;" horiz-adv-x="698" />
<glyph unicode="&#x2005;" horiz-adv-x="523" />
<glyph unicode="&#x2006;" horiz-adv-x="349" />
<glyph unicode="&#x2007;" horiz-adv-x="349" />
<glyph unicode="&#x2008;" horiz-adv-x="261" />
<glyph unicode="&#x2009;" horiz-adv-x="419" />
<glyph unicode="&#x200a;" horiz-adv-x="116" />
<glyph unicode="&#x2010;" d="M61 471v129h621v-129h-621z" />
<glyph unicode="&#x2011;" d="M61 471v129h621v-129h-621z" />
<glyph unicode="&#x2012;" d="M61 471v129h621v-129h-621z" />
<glyph unicode="&#x2013;" horiz-adv-x="985" d="M61 471v129h863v-129h-863z" />
<glyph unicode="&#x2014;" horiz-adv-x="1544" d="M61 471v129h1422v-129h-1422z" />
<glyph unicode="&#x2018;" horiz-adv-x="325" d="M61 1147l125 280h78l-63 -280h-140z" />
<glyph unicode="&#x2019;" horiz-adv-x="325" d="M61 1147l64 280h139l-125 -280h-78z" />
<glyph unicode="&#x201a;" horiz-adv-x="358" d="M61 -207l76 332h160l-158 -332h-78z" />
<glyph unicode="&#x201c;" horiz-adv-x="555" d="M61 1147l125 280h78l-63 -280h-140zM291 1147l125 280h78l-64 -280h-139z" />
<glyph unicode="&#x201d;" horiz-adv-x="555" d="M61 1147l64 280h139l-125 -280h-78zM291 1147l63 280h140l-125 -280h-78z" />
<glyph unicode="&#x201e;" horiz-adv-x="358" d="M61 -207l76 332h160l-158 -332h-78z" />
<glyph unicode="&#x2022;" horiz-adv-x="534" d="M61 518q0 86 59.5 144.5t149.5 58.5q86 0 144.5 -58.5t58.5 -144.5q0 -90 -58.5 -149.5t-144.5 -59.5q-90 0 -149.5 59.5t-59.5 149.5z" />
<glyph unicode="&#x2026;" horiz-adv-x="313" d="M61 92q0 41 28 67.5t69 26.5t67.5 -26.5t26.5 -67.5t-26.5 -68.5t-67.5 -27.5t-69 27.5t-28 68.5z" />
<glyph unicode="&#x202f;" horiz-adv-x="419" />
<glyph unicode="&#x2039;" horiz-adv-x="669" d="M61 582l340 368h207l-329 -368l329 -369h-207z" />
<glyph unicode="&#x203a;" horiz-adv-x="669" d="M61 213l330 369l-330 368h207l340 -368l-340 -369h-207z" />
<glyph unicode="&#x205f;" horiz-adv-x="523" />
<glyph unicode="&#x20ac;" horiz-adv-x="1187" d="M61 547v94h97q-4 57 0 113h-97v94h107q27 168 106.5 306t214 219t310.5 77q106 -2 180 -41t110.5 -101.5t36.5 -131.5q0 -66 -32.5 -124.5t-97 -94t-152.5 -35.5q-104 2 -153.5 53t-49.5 121q0 35 13.5 64.5t33.5 43.5q0 -63 48 -86.5t95 -23.5q70 0 111 41t41 96 q0 63 -52 109t-151 46q-150 0 -246 -153.5t-124 -382.5l389 2v-96l-398 -2q0 -18 -1 -46t1 -65l398 2v-96l-391 -2q25 -219 114.5 -362.5t235.5 -143.5q84 0 128 62.5t44 146.5q0 59 -21.5 107.5t-58.5 68.5q43 12 80 12q80 0 129 -54t49 -132q0 -68 -41 -129.5t-126 -101 t-212 -39.5q-158 0 -277.5 75.5t-191.5 203.5t-94 286h-105z" />
<glyph unicode="&#x2122;" horiz-adv-x="475" d="M61 1378v27h140v-27h-51v-149h-37v149h-52zM225 1229v176h37l57 -113l58 113h37v-176h-37v106l-60 -106l-55 106v-106h-37z" />
<glyph unicode="&#x25fc;" horiz-adv-x="1443" d="M0 0v1444h1444v-1444h-1444z" />
</font>
</defs>
</svg>
